<svg width="125" height="236" viewBox="0 0 125 236" fill="none" xmlns="http://www.w3.org/2000/svg">
<path d="M123.503 219.6C122.703 218.4 121.703 217.6 120.803 216.7L120.703 216.6C119.703 215.7 118.803 214.7 117.803 213.7L117.703 213.6C117.003 212.8 116.203 212 115.403 211.2L111.703 207.3C111.603 207.3 105.603 201.4 99.9028 191.8C94.3028 182.3 94.2028 150.6 94.2028 150.2V150.1C94.2028 149.9 93.1028 128.1 93.7028 77.4C94.0028 51.1 97.3028 32 100.003 20.6C102.903 8.3 105.803 2.1 105.903 2L106.903 0H31.4028V1.4C31.4028 1.9 32.2028 50.9 30.6028 60C29.8028 64.5 27.1028 66.2 22.4028 69C18.5028 71.4 13.6028 74.3 8.40278 80.2C2.50278 86.7 -0.097226 92.7 0.00277398 98.8C0.102774 104.6 2.70278 110.7 8.30278 118.7C18.2028 132.8 22.0028 151.9 22.0028 152.1C33.2028 199.5 38.0028 204 44.1028 209.7C44.7028 210.3 45.4028 210.9 46.1028 211.6L58.5028 224C62.4028 229.2 66.2028 231.8 69.6028 231.8C71.5028 231.8 72.9028 231 73.8028 230.3C77.0028 233.4 80.3028 235 83.7028 235C85.9028 235 87.6028 234.3 88.7028 233.7V234.1L88.8028 233.6C89.0028 233.5 89.1028 233.4 89.3028 233.3C93.4028 235 97.0028 235.9 99.7028 235.9C102.503 235.9 104.103 235 104.903 234.3C105.903 234.6 107.103 234.9 108.203 235H108.303C108.803 235 109.303 235.1 109.903 235.1C110.803 235.1 111.603 235 112.303 234.6C114.003 233.8 115.003 232.7 115.203 231C115.303 230.9 115.503 230.9 115.703 230.8C115.903 230.7 116.203 230.6 116.403 230.5L116.603 230.4C117.103 230.2 117.603 229.9 118.203 229.7C119.203 229.2 120.503 228.6 121.803 227.8C123.603 226.6 124.503 225.2 124.603 223.5C124.703 222.2 124.303 220.8 123.503 219.6ZM102.403 2.7C100.103 8.3 94.0028 25.9 91.7028 56.4C84.2028 65.8 75.6028 70.8 66.2028 71.2C66.0028 71.2 65.8028 71.2 65.6028 71.2L58.1028 70.4C45.7028 67.7 35.9028 58.5 33.8028 56.3C34.7028 43 34.3028 10 34.2028 2.6H102.403V2.7ZM57.5028 73.2C59.9028 73.7 62.4028 74 64.9028 74C65.1028 74 65.3028 74 65.4028 74L70.9028 74.6L74.2028 95.8L56.4028 106.5L41.2028 93.4L52.5028 72.6L57.5028 73.2ZM120.303 225.5C119.203 226.2 118.003 226.8 117.103 227.3C116.603 227.5 116.103 227.8 115.603 228L115.403 228.1C115.203 228.2 115.103 228.2 114.903 228.3C114.503 228.4 114.103 228.6 113.603 228.9C113.103 215.8 98.6028 207.9 98.5028 207.8L98.3028 208.1C107.203 214.7 111.703 224.8 112.803 229.8C112.703 230.1 112.703 230.4 112.703 230.5V230.6C112.603 231.2 112.403 231.6 111.403 232.1C111.103 232.2 110.703 232.3 110.103 232.3C109.703 232.3 109.203 232.3 108.803 232.2H108.703C107.503 232.1 106.203 231.7 105.103 231.3L104.203 230.9C103.203 216.6 89.2028 211.4 89.1028 211.3L89.0028 211.6C98.8028 216.1 102.603 227.6 103.703 231.4L103.503 232C103.403 232.2 102.503 233.1 100.003 233.1C97.4028 233.1 94.0028 232.2 89.9028 230.5L89.5028 230.4C89.5028 229.1 89.4028 227.3 88.9028 225.4C87.9028 221.5 85.0028 216 77.2028 211.5L77.0028 211.8C77.1028 211.9 87.4028 219.5 88.7028 230.5L88.3028 230.8C88.3028 230.8 86.5028 232.3 83.8028 232.3C80.9028 232.3 77.9028 230.7 75.0028 227.4L74.3028 226.6C74.5028 224.6 74.4028 221.8 73.0028 219.2C71.4028 216.2 68.4028 214.1 64.0028 213V213.2V213.4C64.0028 213.4 66.4028 214 68.7028 216.3C71.8028 219.4 72.9028 223.5 73.3028 227.1L72.9028 227.6C72.9028 227.6 71.8028 229.1 69.8028 229.1C68.0028 229.1 65.0028 227.9 60.8028 222.3V222.2L48.3028 209.7C47.6028 209 46.9028 208.3 46.2028 207.7C40.4028 202.3 35.8028 198.1 24.9028 151.5C24.7028 150.4 20.9028 131.6 10.8028 117.1C0.502777 102.4 0.502779 93.5 10.7028 82.1C15.7028 76.6 20.3028 73.7 24.1028 71.4C28.8028 68.5 32.6028 66.2 33.5028 60.5C33.5028 60.4 33.5028 60.2 33.6028 60C36.6028 62.8 42.7028 67.8 50.5028 71L37.9028 94.2L56.4028 110L77.6028 97.2L73.6028 72.9C80.0028 71.1 86.0028 67.1 91.5028 61.1C91.2028 66.2 91.0028 71.6 90.9028 77.3C90.4028 127.2 91.4028 149.1 91.4028 150.1C91.4028 151.9 91.5028 183 97.5028 193C103.303 202.7 109.203 208.6 109.803 209.1L113.503 213C114.203 213.8 115.003 214.6 115.803 215.4L115.903 215.5C116.903 216.5 117.803 217.6 118.903 218.6L119.003 218.7C119.903 219.5 120.703 220.2 121.303 221.1C121.803 221.8 122.103 222.6 122.003 223.4C121.903 223.8 121.703 224.5 120.303 225.5Z" fill="black"/>
</svg>
