<svg width="620" height="800" viewBox="0 0 620 800"  xmlns="http://www.w3.org/2000/svg">
<path d="M619.377 172.691C619.377 148.177 602.466 127.542 579.699 121.825V103.311C602.465 97.5932 619.377 76.96 619.377 52.4443C619.377 23.5268 595.85 0 566.933 0C538.015 0 514.489 23.5268 514.489 52.446C514.489 76.9617 531.399 97.5966 554.169 103.312V121.825C531.401 127.54 514.489 148.175 514.489 172.691C514.489 197.207 531.399 217.842 554.169 223.557V242.07C531.401 247.786 514.489 268.42 514.489 292.936C514.489 317.452 531.399 338.087 554.169 343.803V362.315C531.401 368.031 514.489 388.666 514.489 413.181C514.489 437.697 531.399 458.332 554.169 464.048V481.125C528.672 484.669 508.975 506.601 508.975 533.057C508.975 553.283 520.492 570.858 537.306 579.605C535.612 583.915 533.797 588.179 531.862 592.388C526.759 590.727 521.319 589.818 515.67 589.818C486.752 589.818 463.224 613.345 463.224 642.264C463.224 653.469 466.768 663.857 472.78 672.39C469.248 675.554 465.631 678.625 461.923 681.58C452.47 672.376 439.575 666.691 425.37 666.691C396.453 666.691 372.924 690.218 372.924 719.137C372.924 721.597 373.108 724.014 373.437 726.383C368.674 727.665 363.869 728.803 359.035 729.794C351.741 709.591 332.378 695.108 309.692 695.108C287.006 695.108 267.643 709.59 260.349 729.794C255.515 728.802 250.71 727.665 245.947 726.383C246.276 724.012 246.46 721.595 246.46 719.137C246.46 690.22 222.933 666.691 194.014 666.691C179.809 666.691 166.914 672.376 157.46 681.58C153.753 678.625 150.134 675.554 146.604 672.39C152.614 663.859 156.16 653.471 156.16 642.264C156.16 613.346 132.633 589.818 103.714 589.818C98.0647 589.818 92.6247 590.727 87.5217 592.388C85.5864 588.18 83.7702 583.915 82.0783 579.605C98.8919 570.86 110.409 553.283 110.409 533.057C110.409 506.601 90.7115 484.669 65.2153 481.125V464.048C87.983 458.332 104.895 437.697 104.895 413.181C104.895 388.666 87.9847 368.031 65.2153 362.315V343.803C87.983 338.087 104.895 317.452 104.895 292.936C104.895 268.42 87.9847 247.786 65.2153 242.07V223.557C87.983 217.842 104.895 197.207 104.895 172.691C104.895 148.175 87.9847 127.54 65.2153 121.825V103.312C87.983 97.5966 104.895 76.9617 104.895 52.446C104.889 23.5268 81.3617 0 52.4443 0C23.5268 0 0 23.5268 0 52.446C0 76.96 16.9106 97.5949 39.6783 103.312V121.826C16.9123 127.544 0 148.177 0 172.693C0 197.209 16.9106 217.842 39.6783 223.559V242.073C16.9123 247.791 0 268.424 0 292.94C0 317.455 16.9106 338.089 39.6783 343.806V362.32C16.9123 368.037 0 388.671 0 413.186C0 437.702 16.9106 458.335 39.6783 464.053V483.912C19.7481 491.348 5.5132 510.572 5.5132 533.064C5.5132 561.641 28.4919 584.938 56.9413 585.483C59.5813 592.485 62.5175 599.394 65.7328 606.157C56.7796 615.569 51.2647 628.283 51.2647 642.267C51.2647 671.185 74.7915 694.713 103.711 694.713C112.104 694.713 120.036 692.72 127.077 689.2C132.504 694.182 138.15 698.943 143.959 703.469C142.405 708.419 141.566 713.683 141.566 719.139C141.566 748.056 165.093 771.585 194.012 771.585C211.312 771.585 226.677 763.159 236.235 750.201C243.35 752.206 250.563 753.925 257.825 755.34C261.597 780.577 283.414 800 309.689 800C335.963 800 357.78 780.577 361.552 755.338C368.814 753.923 376.027 752.204 383.142 750.199C392.7 763.157 408.065 771.583 425.365 771.583C454.283 771.583 477.811 748.056 477.811 719.137C477.811 713.68 476.972 708.417 475.418 703.467C481.227 698.941 486.875 694.18 492.3 689.198C499.341 692.718 507.273 694.712 515.666 694.712C544.584 694.712 568.112 671.185 568.112 642.266C568.112 628.281 562.599 615.566 553.644 606.155C556.86 599.392 559.798 592.483 562.436 585.481C590.885 584.934 613.864 561.637 613.864 533.062C613.864 510.57 599.629 491.346 579.699 483.91V464.051C602.465 458.334 619.377 437.7 619.377 413.185C619.377 388.669 602.466 368.036 579.699 362.318V343.804C602.465 338.087 619.377 317.454 619.377 292.938C619.377 268.422 602.466 247.789 579.699 242.071V223.557C602.466 217.84 619.377 197.207 619.377 172.691ZM167.098 719.137C167.098 704.296 179.171 692.223 194.012 692.223C208.853 692.223 220.926 704.296 220.926 719.137C220.926 733.978 208.853 746.051 194.012 746.051C179.171 746.051 167.098 733.978 167.098 719.137ZM76.7966 642.266C76.7966 627.425 88.8698 615.352 103.711 615.352C118.552 615.352 130.625 627.425 130.625 642.266C130.625 657.106 118.552 669.18 103.711 669.18C88.8698 669.18 76.7966 657.106 76.7966 642.266ZM57.9558 506.146C72.7966 506.146 84.8698 518.22 84.8698 533.06C84.8698 547.901 72.7966 559.974 57.9558 559.974C43.1149 559.974 31.0417 547.901 31.0417 533.06C31.0417 518.22 43.1166 506.146 57.9558 506.146ZM52.4443 386.271C67.2834 386.271 79.3566 398.344 79.3566 413.185C79.3566 428.02 67.2919 440.089 52.4613 440.097C37.5966 440.087 25.5319 428.019 25.5319 413.185C25.5319 398.342 37.6034 386.271 52.4443 386.271ZM52.4443 266.024C67.2834 266.024 79.3566 278.097 79.3566 292.938C79.3566 307.779 67.2834 319.852 52.4443 319.852C37.6034 319.852 25.5302 307.779 25.5302 292.938C25.5302 278.097 37.6034 266.024 52.4443 266.024ZM52.4443 145.779C67.2834 145.779 79.3566 157.852 79.3566 172.693C79.3566 187.529 67.2919 199.597 52.4613 199.605C37.5966 199.595 25.5319 187.527 25.5319 172.693C25.5319 157.85 37.6034 145.779 52.4443 145.779ZM52.4443 25.5319C67.2834 25.5319 79.3566 37.6051 79.3566 52.446C79.3566 67.2868 67.2834 79.36 52.4443 79.36C37.6034 79.36 25.5302 67.2868 25.5302 52.446C25.5302 37.6051 37.6034 25.5319 52.4443 25.5319ZM282.775 747.554C282.775 732.713 294.848 720.64 309.689 720.64C324.529 720.64 336.603 732.713 336.603 747.554C336.603 762.395 324.529 774.468 309.689 774.468C294.848 774.468 282.775 762.395 282.775 747.554ZM566.933 145.779C581.774 145.779 593.847 157.852 593.847 172.693C593.847 187.527 581.784 199.595 566.952 199.605C552.087 199.597 540.022 187.529 540.022 172.693C540.02 157.85 552.094 145.779 566.933 145.779ZM566.933 25.5319C581.774 25.5319 593.847 37.6051 593.847 52.446C593.847 67.2868 581.774 79.36 566.933 79.36C552.094 79.36 540.021 67.2868 540.021 52.446C540.021 37.6051 552.094 25.5319 566.933 25.5319ZM566.933 319.85C552.094 319.85 540.021 307.777 540.021 292.936C540.021 278.095 552.094 266.022 566.933 266.022C581.774 266.022 593.847 278.095 593.847 292.936C593.847 307.777 581.774 319.85 566.933 319.85ZM566.95 440.095C552.085 440.087 540.021 428.019 540.021 413.183C540.021 398.342 552.094 386.269 566.933 386.269C581.774 386.269 593.847 398.342 593.847 413.183C593.845 428.017 581.782 440.087 566.95 440.095ZM561.421 559.973C546.581 559.973 534.507 547.9 534.507 533.059C534.507 518.218 546.581 506.145 561.421 506.145C576.262 506.145 588.335 518.218 588.335 533.059C588.335 547.9 576.261 559.973 561.421 559.973ZM515.668 669.18C500.827 669.18 488.754 657.106 488.754 642.266C488.754 627.425 500.827 615.352 515.668 615.352C530.509 615.352 542.582 627.425 542.582 642.266C542.582 657.106 530.507 669.18 515.668 669.18ZM425.367 746.051C410.526 746.051 398.453 733.978 398.453 719.137C398.453 704.296 410.526 692.223 425.367 692.223C440.208 692.223 452.281 704.296 452.281 719.137C452.281 733.978 440.208 746.051 425.367 746.051Z" />
<path d="M140.986 213.906C140.986 237.185 156.908 256.807 178.433 262.47V329.869C158.79 336.689 144.646 355.372 144.646 377.309C144.646 404.997 167.17 427.522 194.858 427.522C196.712 427.522 198.538 427.413 200.341 427.217C209.907 441.6 222.222 453.981 236.564 463.617C236.188 466.659 235.97 469.748 235.97 472.89C235.97 514.249 269.619 547.896 310.976 547.896C352.332 547.896 385.982 514.247 385.982 472.89C385.982 469.75 385.766 466.659 385.388 463.619C399.728 453.983 412.045 441.603 421.611 427.219C423.412 427.414 425.238 427.523 427.092 427.523C454.78 427.523 477.304 404.999 477.304 377.311C477.304 355.375 463.161 336.693 443.519 329.872V262.473C465.044 256.81 480.966 237.188 480.966 213.91C480.966 190.631 465.044 171.009 443.519 165.346V98.7762C465.044 93.1132 480.966 73.4911 480.966 50.2128C480.966 22.5243 458.441 0 430.753 0C403.064 0 380.54 22.5243 380.54 50.2128C380.54 73.4911 396.462 93.1132 417.987 98.7762V165.343C396.462 171.006 380.54 190.628 380.54 213.906C380.54 237.185 396.462 256.807 417.987 262.47V327.937C394.632 332.233 376.879 352.729 376.879 377.307C376.879 393.791 384.864 408.441 397.165 417.602C391.488 425.243 384.809 432.087 377.315 437.944C364.727 414.143 339.72 397.881 310.974 397.881C282.229 397.881 257.223 414.143 244.634 437.944C237.138 432.085 230.46 425.241 224.784 417.602C237.087 408.441 245.069 393.791 245.069 377.307C245.069 352.73 227.316 332.235 203.963 327.937V262.47C225.488 256.807 241.41 237.185 241.41 213.906C241.41 190.628 225.488 171.006 203.963 165.343V98.7762C225.488 93.1132 241.41 73.4911 241.41 50.2128C241.41 22.5243 218.886 0 191.197 0C163.509 0 140.984 22.5243 140.984 50.2128C140.984 73.4911 156.906 93.1132 178.431 98.7762V165.343C156.908 171.006 140.986 190.628 140.986 213.906ZM427.093 352.626C440.702 352.626 451.774 363.699 451.774 377.307C451.774 390.916 440.702 401.988 427.093 401.988C413.485 401.988 402.412 390.916 402.412 377.307C402.412 363.699 413.483 352.626 427.093 352.626ZM430.755 189.226C444.363 189.226 455.435 200.298 455.435 213.906C455.435 227.515 444.363 238.587 430.755 238.587C417.146 238.587 406.074 227.515 406.074 213.906C406.074 200.298 417.146 189.226 430.755 189.226ZM430.755 25.5319C444.363 25.5319 455.435 36.6043 455.435 50.2128C455.435 63.8213 444.363 74.8936 430.755 74.8936C417.146 74.8936 406.074 63.8213 406.074 50.2128C406.074 36.6043 417.146 25.5319 430.755 25.5319ZM310.976 423.413C338.256 423.413 360.45 445.607 360.45 472.887C360.45 500.167 338.256 522.361 310.976 522.361C283.696 522.361 261.502 500.167 261.502 472.887C261.502 445.607 283.694 423.413 310.976 423.413ZM191.199 238.587C177.59 238.587 166.518 227.515 166.518 213.906C166.518 200.298 177.59 189.226 191.199 189.226C204.807 189.226 215.88 200.298 215.88 213.906C215.88 227.515 204.807 238.587 191.199 238.587ZM194.858 401.988C181.25 401.988 170.178 390.916 170.178 377.307C170.178 363.699 181.25 352.626 194.858 352.626C208.467 352.626 219.539 363.699 219.539 377.307C219.539 390.916 208.467 401.988 194.858 401.988ZM191.199 25.5319C204.807 25.5319 215.88 36.6043 215.88 50.2128C215.88 63.8213 204.807 74.8936 191.199 74.8936C177.59 74.8936 166.518 63.8213 166.518 50.2128C166.518 36.6043 177.59 25.5319 191.199 25.5319Z" />
</svg>
