<svg width="575" height="800" viewBox="0 0 575 800"  xmlns="http://www.w3.org/2000/svg">
<path d="M275.538 675.539V692.775L260.61 684.157C254.995 680.913 247.813 682.839 244.571 688.454C241.329 694.07 243.253 701.251 248.869 704.494L263.796 713.112L248.869 721.73C243.253 724.973 241.329 732.154 244.571 737.769C246.746 741.536 250.692 743.642 254.75 743.642C256.742 743.642 258.761 743.135 260.61 742.067L275.538 733.449V750.685C275.538 757.17 280.795 762.427 287.28 762.427C293.764 762.427 299.021 757.17 299.021 750.685V733.449L313.949 742.067C315.798 743.135 317.817 743.642 319.809 743.642C323.867 743.642 327.813 741.535 329.988 737.769C333.23 732.154 331.306 724.973 325.69 721.73L310.763 713.112L325.69 704.494C331.306 701.251 333.23 694.07 329.988 688.454C326.746 682.839 319.564 680.915 313.949 684.157L299.021 692.775V675.539C299.021 669.054 293.764 663.797 287.28 663.797C280.795 663.797 275.538 669.054 275.538 675.539Z" />
<path d="M519.045 556.961C522.478 551.369 524.462 544.797 524.462 537.769C524.462 521.587 513.957 507.823 499.413 502.91V465.13C542.301 415.781 568.297 351.378 568.297 281.018C568.297 126.063 442.234 0 287.28 0C132.326 0 6.26223 126.063 6.26223 281.018C6.26223 351.378 32.2583 415.781 75.1468 465.13V502.91C60.6027 507.823 50.0978 521.587 50.0978 537.769C50.0978 544.797 52.0814 551.371 55.5147 556.961C23.0685 569.572 0 601.115 0 637.965C0 685.876 38.9777 724.853 86.8885 724.853C134.799 724.853 173.777 685.876 173.777 637.965C173.777 601.115 150.708 569.572 118.262 556.961C121.695 551.369 123.679 544.797 123.679 537.769C123.679 521.587 113.174 507.823 98.6301 502.91V489.124C145.83 531.95 207.613 558.965 275.538 561.772V578.059C260.994 582.971 250.489 596.736 250.489 612.917C250.489 619.945 252.473 626.519 255.906 632.11C223.46 644.719 200.391 676.261 200.391 713.112C200.391 761.022 239.369 800 287.28 800C335.191 800 374.168 761.022 374.168 713.112C374.168 676.261 351.1 644.719 318.654 632.108C322.087 626.516 324.07 619.944 324.07 612.916C324.07 596.734 313.566 582.97 299.022 578.057V561.771C366.946 558.964 428.73 531.95 475.93 489.123V502.909C461.386 507.822 450.881 521.586 450.881 537.767C450.881 544.795 452.864 551.369 456.297 556.96C423.851 569.572 400.783 601.115 400.783 637.965C400.783 685.876 439.76 724.853 487.671 724.853C535.582 724.853 574.56 685.876 574.56 637.965C574.56 601.115 551.491 569.572 519.045 556.961ZM150.294 637.965C150.294 672.927 121.85 701.37 86.8885 701.37C51.9264 701.37 23.4834 672.927 23.4834 637.965C23.4834 603.003 51.9264 574.56 86.8885 574.56C121.85 574.56 150.294 603.003 150.294 637.965ZM86.8885 551.076C79.5507 551.076 73.5812 545.107 73.5812 537.769C73.5812 530.431 79.5507 524.462 86.8885 524.462C94.2262 524.462 100.196 530.431 100.196 537.769C100.196 545.107 94.2262 551.076 86.8885 551.076ZM350.685 713.112C350.685 748.074 322.242 776.517 287.28 776.517C252.318 776.517 223.875 748.074 223.875 713.112C223.875 678.15 252.318 649.706 287.28 649.706C322.242 649.706 350.685 678.15 350.685 713.112ZM287.28 626.223C279.942 626.223 273.973 620.254 273.973 612.916C273.973 605.578 279.942 599.609 287.28 599.609C294.618 599.609 300.587 605.578 300.587 612.916C300.587 620.254 294.618 626.223 287.28 626.223ZM287.28 538.552C145.274 538.552 29.7456 423.023 29.7456 281.018C29.7456 139.012 145.274 23.4834 287.28 23.4834C429.285 23.4834 544.814 139.012 544.814 281.018C544.814 423.023 429.285 538.552 287.28 538.552ZM474.364 537.769C474.364 530.431 480.333 524.462 487.671 524.462C495.009 524.462 500.978 530.431 500.978 537.769C500.978 545.107 495.009 551.076 487.671 551.076C480.333 551.076 474.364 545.107 474.364 537.769ZM487.671 701.37C452.709 701.37 424.266 672.927 424.266 637.965C424.266 603.003 452.709 574.56 487.671 574.56C522.633 574.56 551.076 603.003 551.076 637.965C551.076 672.927 522.633 701.37 487.671 701.37Z" />
<path d="M530.379 613.307C527.136 607.691 519.955 605.766 514.339 609.009L499.412 617.628V600.391C499.412 593.907 494.155 588.649 487.67 588.649C481.186 588.649 475.928 593.907 475.928 600.391V617.628L461.001 609.009C455.384 605.766 448.202 607.691 444.962 613.307C441.719 618.923 443.644 626.104 449.259 629.346L464.187 637.964L449.259 646.583C443.644 649.825 441.719 657.006 444.962 662.622C447.136 666.389 451.083 668.494 455.141 668.494C457.132 668.494 459.152 667.987 461.001 666.919L475.928 658.301V675.538C475.928 682.022 481.186 687.28 487.67 687.28C494.155 687.28 499.412 682.022 499.412 675.538V658.301L514.339 666.919C516.188 667.987 518.208 668.494 520.199 668.494C524.257 668.494 528.204 666.387 530.379 662.622C533.621 657.006 531.697 649.825 526.081 646.583L511.154 637.964L526.081 629.346C531.697 626.104 533.621 618.923 530.379 613.307Z" />
<path d="M75.1472 600.391V617.628L60.2196 609.009C54.6024 605.766 47.4228 607.691 44.1805 613.307C40.9382 618.923 42.8623 626.104 48.4779 629.346L63.4055 637.964L48.4779 646.583C42.8623 649.825 40.9382 657.006 44.1805 662.622C46.355 666.389 50.3018 668.494 54.3597 668.494C56.3511 668.494 58.3707 667.987 60.2196 666.919L75.1472 658.301V675.538C75.1472 682.022 80.4044 687.28 86.8889 687.28C93.3734 687.28 98.6306 682.022 98.6306 675.538V658.301L113.558 666.919C115.407 667.987 117.427 668.494 119.418 668.494C123.476 668.494 127.423 666.387 129.597 662.622C132.84 657.006 130.916 649.825 125.3 646.583L110.372 637.964L125.3 629.346C130.916 626.104 132.84 618.923 129.597 613.307C126.355 607.691 119.172 605.766 113.558 609.009L98.6306 617.628V600.391C98.6306 593.907 93.3734 588.649 86.8889 588.649C80.4044 588.649 75.1472 593.907 75.1472 600.391Z" />
</svg>
