<svg width="800" height="764" viewBox="0 0 800 764"  xmlns="http://www.w3.org/2000/svg">
<path d="M740.419 478.596C730.56 446.696 708.123 420.244 686.253 395.803C681.952 390.995 673.183 397.519 677.17 402.81C677.489 403.233 677.807 403.659 678.129 404.081C676.594 406.222 676.023 409.119 677.435 411.963C695.498 448.349 680.34 485.561 693.184 522.128C699.201 539.266 716.043 551.343 732.886 539.028C750.872 525.87 745.975 496.594 740.419 478.596Z" />
<path d="M771.903 416.365C707.741 299.127 561.772 260.791 447.635 325.759C446.139 319.58 442.424 313.444 438.982 309.116C432.362 300.796 423.072 295.055 412.73 292.81C410.523 266.451 398.827 238.722 383.692 224.059C364.301 205.271 330.789 197.078 303.347 203.371C317.956 174.134 293.642 133.649 263.745 117.374C249.216 109.465 229.162 105.581 209.963 106.936C218.01 24.0818 110.6 -21.2653 42.7501 9.85641C-37.4718 46.6537 5.63812 155.948 86.1631 145.284C111.26 174.774 150.444 193.896 188.22 187.361C186.167 191.18 184.498 194.794 183.396 197.653C172.536 225.828 176.807 258.032 195.787 281.632C232.934 327.823 318.804 324.692 337.132 264.202C342.746 267.314 347.923 271.609 352.278 277.921C356.534 284.092 360.141 291.429 362.812 299.158C340.57 293.689 317.515 322.9 313.8 343.33C307.653 377.127 332.635 408.084 363.61 418.598C280.568 587.561 464.355 844.485 674.689 737.97C790.476 679.333 833.559 529.013 771.903 416.365ZM414.111 346.201C415.439 348.012 416.483 349.996 417.557 351.953C405.527 361.719 395.266 372.365 386.32 383.57C382.391 381.686 378.818 379.475 375.787 375.162C371.734 369.398 370.691 362.947 370.974 356.217C386.869 354.359 397.725 347.076 404.353 336.469C407.971 339.32 411.364 342.448 414.111 346.201ZM146.699 83.5239C159.454 91.3714 168.495 103.72 171.339 119.289C163.833 124.508 157.793 131.369 154.282 140.234C144.289 126.565 140.678 108.041 147.102 88.0636C147.639 86.3866 147.378 84.8478 146.699 83.5239ZM195.446 175.926C170.05 183.647 144.918 176.194 122.626 161.313C113.271 155.065 104.057 147.705 96.5856 139.182C96.7391 136.304 95.2348 133.395 92.3337 132.904C84.2712 118.295 74.5395 86.613 90.1118 76.5742C103.677 73.4774 120.124 73.9456 127.903 75.753C131.844 76.6702 135.551 78.0325 139.131 79.5905C137.316 79.8246 135.639 80.7532 134.684 82.8293C121.936 110.632 131.268 140.456 150.878 158.308C150.862 159.029 150.72 159.663 150.728 160.403C150.778 164.329 155.866 166.677 158.783 164.486C169.697 171.693 182.721 175.611 196.597 174.299C196.19 174.821 195.841 175.388 195.446 175.926ZM215.209 160.499C213.271 160.818 211.375 161.539 209.522 162.51C192.633 164.517 177.414 160.284 165.871 151.777C181.178 124.903 206.306 110.716 240.728 121.806C274.355 132.643 317.101 178.892 285.634 210.171C282.329 212.04 279.083 214.016 276.262 216.518C271.063 188.424 250.352 164.617 221.663 158.404C218.858 157.801 216.671 158.841 215.209 160.499ZM259.585 249.543C254.642 246.42 250.08 243.158 246.215 238.564C245.402 237.494 244.642 236.358 243.813 235.303C242.9 233.929 241.971 232.593 241.181 230.959C233.985 216.065 236.342 200.01 243.717 185.711C243.878 185.404 243.732 185.093 243.802 184.779C255.69 194.338 264.301 207.577 267.632 223.383C267.789 224.136 268.135 224.727 268.561 225.229C263.96 231.845 260.832 239.934 259.585 249.543ZM363.158 267.944C342.428 238.729 307.503 239.95 276.063 247.367C296.014 216.511 329.626 203.594 364.178 228.004C379.939 239.136 391.094 255.25 396.432 273.823C402.679 295.554 401.175 335.061 374.8 344.689C386.462 320.509 378.473 289.526 363.158 267.944ZM656.158 725.598C548.253 770.361 424.825 712.002 376.723 608.486C328.705 505.152 374.555 391.295 467.494 332.421C569.735 291.813 690.058 314.085 750.632 415.743C814.464 522.861 775.46 676.11 656.158 725.598Z" />
</svg>
