<svg width="800" height="800" viewBox="0 0 800 800"  xmlns="http://www.w3.org/2000/svg">
<path d="M399.998 800C369.161 800 344.076 774.915 344.076 744.078V729.548C338.044 728.529 332.028 727.345 326.068 726.003L320.613 739.069C311.893 759.962 291.627 773.462 268.989 773.462C261.584 773.462 254.344 772.009 247.468 769.136C233.684 763.38 222.963 752.604 217.286 738.788C211.61 724.977 211.65 709.771 217.405 695.991L222.683 683.348C217.204 679.909 211.808 676.306 206.53 672.552L196.239 682.842C185.676 693.405 171.635 699.224 156.694 699.224C141.754 699.224 127.713 693.402 117.154 682.842C106.591 672.283 100.776 658.242 100.776 643.302C100.776 628.361 106.595 614.32 117.154 603.757L127.445 593.466C123.738 588.252 120.17 582.923 116.771 577.511L104.558 582.528C97.7604 585.323 90.6156 586.736 83.317 586.736C60.5446 586.736 40.2355 573.125 31.5789 552.066C19.8552 523.543 33.521 490.803 62.0407 479.083L74.0446 474.149C72.6749 468.118 71.4749 462.027 70.4446 455.92H55.9144C25.0855 455.92 0 430.835 0 399.998C0 369.161 25.0815 344.08 55.9183 344.08H70.4486C71.5815 337.369 72.9196 330.682 74.4591 324.067L62.4867 319.065C48.7025 313.314 37.9815 302.534 32.3052 288.718C26.625 274.902 26.6644 259.701 32.4197 245.917C41.1394 225.027 61.4012 211.527 84.0433 211.527C91.4485 211.527 98.688 212.98 105.564 215.854L117.754 220.942C120.856 216.063 124.093 211.247 127.452 206.53L117.162 196.239C106.599 185.68 100.784 171.639 100.784 156.698C100.784 141.758 106.602 127.717 117.162 117.154C127.721 106.591 141.762 100.776 156.702 100.776C171.643 100.776 185.684 106.595 196.247 117.154L206.538 127.445C212.313 123.343 218.226 119.416 224.234 115.685L219.027 103.006C213.347 89.1906 213.386 73.9894 219.142 60.2052C224.893 46.421 235.673 35.7039 249.489 30.0236C256.286 27.2289 263.431 25.8118 270.734 25.8118C293.506 25.8118 313.811 39.4223 322.468 60.4854L327.856 73.5907C333.228 72.4104 338.648 71.3604 344.08 70.4407V55.9104C344.08 25.0855 369.165 0 399.998 0C430.831 0 455.92 25.0855 455.92 55.9223V70.4525C462.907 71.6328 469.866 73.0341 476.754 74.6486L482.478 60.9315C491.202 40.0381 511.464 26.5381 534.102 26.5381C541.507 26.5381 548.746 27.9907 555.623 30.8644C584.075 42.742 597.563 75.5565 585.69 104.009L579.765 118.208C584.399 121.172 588.97 124.259 593.458 127.448L603.753 117.158C614.312 106.595 628.353 100.78 643.294 100.78C658.234 100.78 672.275 106.599 682.838 117.158C704.64 138.963 704.64 174.442 682.838 196.239L672.548 206.53C676.487 212.068 680.265 217.74 683.853 223.504L698.533 217.472C705.33 214.677 712.475 213.26 719.778 213.26C742.55 213.26 762.855 226.871 771.512 247.934C783.235 276.454 769.57 309.193 741.05 320.913L726.208 327.015C727.467 332.668 728.584 338.368 729.547 344.08H744.078C774.914 344.08 799.996 369.161 799.996 399.998C799.996 430.835 774.914 455.92 744.078 455.92H729.547C728.482 462.228 727.234 468.52 725.813 474.753L740.616 480.931C754.4 486.686 765.121 497.462 770.797 511.278C776.474 525.094 776.434 540.295 770.679 554.079C761.959 574.969 741.693 588.469 719.055 588.469C711.65 588.469 704.411 587.016 697.534 584.143L682.89 578.028C679.59 583.258 676.136 588.417 672.548 593.462L682.838 603.753C704.64 625.558 704.64 661.037 682.838 682.834C672.275 693.398 658.234 699.216 643.294 699.216C628.353 699.216 614.312 693.394 603.753 682.834L593.462 672.544C588.477 676.084 583.388 679.499 578.229 682.759L584.071 696.982C589.752 710.798 589.712 725.999 583.957 739.783C578.206 753.567 567.425 764.288 553.61 769.965C546.812 772.759 539.667 774.176 532.365 774.176C509.593 774.176 489.287 760.566 480.631 739.503L474.978 725.762C468.67 727.207 462.303 728.474 455.916 729.552V744.082C455.92 774.915 430.835 800 399.998 800ZM367.764 732.67V744.078C367.764 761.853 382.227 776.316 400.002 776.316C417.777 776.316 432.24 761.853 432.24 744.078V732.67C410.853 734.715 389.147 734.715 367.764 732.67ZM498.054 719.588L502.539 730.499C507.532 742.645 519.24 750.492 532.373 750.492C536.569 750.492 540.686 749.671 544.614 748.061C552.579 744.788 558.792 738.607 562.108 730.665C565.428 722.715 565.452 713.955 562.179 705.99L557.581 694.803C538.566 704.979 518.632 713.28 498.054 719.588ZM243.359 695.3L239.265 705.109C235.946 713.059 235.922 721.819 239.194 729.784C242.467 737.75 248.648 743.963 256.59 747.279C260.565 748.937 264.734 749.778 268.993 749.778C282.051 749.778 293.735 741.994 298.76 729.95L302.956 719.904C282.355 713.655 262.397 705.421 243.359 695.3ZM367.764 708.871C389.119 711.07 410.885 711.07 432.24 708.871V700.657C432.24 682.882 417.777 668.419 400.002 668.419C382.227 668.419 367.764 682.882 367.764 700.657V708.871ZM399.998 644.734C430.835 644.734 455.92 669.82 455.92 700.657V705.504C459.24 704.904 462.552 704.245 465.848 703.53L464.127 699.342C458.447 685.527 458.486 670.325 464.241 656.541C469.993 642.757 480.773 632.04 494.589 626.36C501.386 623.565 508.531 622.148 515.833 622.148C538.606 622.148 558.911 635.758 567.567 656.821L569.079 660.496C571.562 658.882 574.025 657.232 576.461 655.542L573.054 652.136C562.491 641.577 556.677 627.536 556.677 612.595C556.677 597.654 562.495 583.614 573.054 573.05C583.613 562.487 597.654 556.673 612.595 556.673C627.536 556.673 641.577 562.491 652.14 573.05L655.546 576.457C657.303 573.915 659.024 571.353 660.705 568.764L657.473 567.414C643.688 561.658 632.967 550.882 627.291 537.066C621.615 523.251 621.65 508.045 627.405 494.265C636.125 473.372 656.387 459.872 679.029 459.872C686.434 459.872 693.674 461.324 700.55 464.198L703.613 465.477C704.292 462.299 704.924 459.11 705.504 455.912H700.657C669.82 455.912 644.738 430.827 644.738 399.99C644.738 369.153 669.82 344.072 700.657 344.072H705.508C705.03 341.423 704.513 338.782 703.961 336.149L700.898 337.409C694.1 340.203 686.955 341.621 679.653 341.621C656.877 341.621 636.571 328.01 627.919 306.947C622.238 293.131 622.278 277.93 628.033 264.146C633.784 250.361 644.565 239.644 658.38 233.964L661.621 232.63C659.651 229.563 657.627 226.523 655.55 223.519L652.144 226.926C641.581 237.489 627.54 243.308 612.599 243.308C597.658 243.308 583.617 237.485 573.058 226.926C562.495 216.367 556.681 202.326 556.681 187.385C556.681 172.444 562.499 158.404 573.058 147.841L576.465 144.434C574.491 143.068 572.502 141.726 570.496 140.404L568.969 144.063C560.249 164.956 539.983 178.456 517.349 178.456C509.944 178.456 502.7 177 495.824 174.126C482.04 168.375 471.319 157.594 465.643 143.779C459.966 129.963 460.006 114.762 465.757 100.981L467.498 96.8051C463.653 95.9564 459.797 95.1788 455.92 94.4722V99.3196C455.92 130.156 430.835 155.238 399.998 155.238C369.161 155.238 344.076 130.156 344.076 99.3196V94.4722C341.711 94.8985 339.355 95.3604 337.002 95.842L338.968 100.634C350.692 129.154 337.026 161.893 308.506 173.613C301.709 176.408 294.564 177.825 287.261 177.825C264.489 177.825 244.184 164.214 235.527 143.151L233.368 137.897C230.052 140.009 226.772 142.188 223.535 144.426L226.942 147.833C248.743 169.638 248.743 205.117 226.942 226.914C216.379 237.477 202.338 243.296 187.397 243.296C172.456 243.296 158.416 237.473 147.856 226.914L144.446 223.508C142.918 225.714 141.422 227.94 139.954 230.183L145.63 232.555C159.414 238.306 170.131 249.086 175.812 262.902C181.492 276.718 181.452 291.923 175.697 305.703C166.977 326.593 146.712 340.097 124.077 340.097C124.073 340.097 124.077 340.097 124.073 340.097C116.668 340.093 109.429 338.64 102.552 335.767L96.6472 333.303C95.8696 336.868 95.1472 340.46 94.4959 344.056H99.3433C130.18 344.056 155.266 369.138 155.266 399.974C155.266 430.811 130.176 455.92 99.3433 455.92H94.4959C95.0485 458.96 95.6446 461.987 96.288 465.011L102.205 462.58C109.002 459.785 116.147 458.368 123.45 458.368C146.226 458.368 166.531 471.978 175.188 493.041C186.912 521.569 173.242 554.308 144.722 566.02L139.03 568.361C140.795 571.089 142.602 573.792 144.45 576.465L147.86 573.058C158.419 562.495 172.46 556.681 187.401 556.681C202.342 556.681 216.383 562.499 226.946 573.058C248.747 594.864 248.747 630.342 226.946 652.14L223.539 655.55C226.31 657.465 229.113 659.34 231.943 661.163L234.134 655.921C242.857 635.028 263.119 621.528 285.757 621.528C293.163 621.528 300.402 622.981 307.278 625.854C321.063 631.61 331.784 642.386 337.46 656.202C343.136 670.017 343.101 685.223 337.345 699.003L335.344 703.795C338.245 704.407 341.163 704.979 344.08 705.512V700.657C344.08 669.82 369.165 644.734 399.998 644.734ZM252.521 673.341C271.5 683.604 291.473 691.838 312.13 697.921L315.489 689.877C318.809 681.927 318.832 673.167 315.56 665.202C312.284 657.236 306.102 651.027 298.16 647.707C294.185 646.049 290.017 645.208 285.757 645.208C272.703 645.208 261.019 652.992 255.99 665.036L252.521 673.341ZM515.833 645.832C511.637 645.832 507.52 646.653 503.593 648.263C495.627 651.54 489.414 657.721 486.098 665.663C482.778 673.609 482.754 682.369 486.027 690.334L489.007 697.578C509.636 691.416 529.578 683.103 548.514 672.773L545.66 665.825C540.674 653.683 528.962 645.832 515.833 645.832ZM612.433 658.021L620.506 666.094C626.596 672.184 634.692 675.54 643.298 675.54C651.911 675.54 660.003 672.184 666.094 666.094C678.662 653.525 678.662 633.074 666.094 620.502L658.021 612.429C644.324 629.052 629.055 644.324 612.433 658.021ZM141.975 612.429L133.902 620.502C127.812 626.592 124.46 634.688 124.46 643.298C124.46 651.907 127.812 659.999 133.902 666.09C139.993 672.181 148.089 675.536 156.694 675.536C165.308 675.536 173.4 672.181 179.49 666.09L187.563 658.017C170.944 644.324 155.676 629.052 141.975 612.429ZM158.806 595.602C172.389 612.331 187.669 627.607 204.398 641.194L210.201 635.391C222.769 622.823 222.769 602.371 210.201 589.799C204.11 583.712 196.014 580.357 187.405 580.357C178.796 580.357 170.7 583.712 164.613 589.799L158.806 595.602ZM612.595 580.357C603.982 580.357 595.89 583.712 589.803 589.799C583.716 595.89 580.361 603.986 580.361 612.595C580.361 621.204 583.712 629.296 589.803 635.387L595.606 641.186C612.331 627.607 627.611 612.323 641.194 595.598L635.395 589.795C629.3 583.712 621.208 580.357 612.595 580.357ZM694.905 557.379L706.657 562.286C710.632 563.944 714.8 564.785 719.059 564.785C732.117 564.785 743.801 557 748.826 544.957C755.671 528.552 747.903 509.636 731.497 502.787L719.655 497.845C713.359 518.431 705.074 538.369 694.905 557.379ZM80.1591 497.245L71.0525 500.987C63.0867 504.264 56.8736 510.445 53.5578 518.387C50.2381 526.333 50.2144 535.093 53.4868 543.058C58.4802 555.204 70.188 563.052 83.3249 563.052C87.5209 563.052 91.6341 562.235 95.5617 560.624L104.799 556.827C94.6656 537.789 86.4156 517.839 80.1591 497.245ZM679.025 483.564C665.967 483.564 654.283 491.348 649.258 503.391C645.938 511.341 645.915 520.1 649.187 528.066C652.463 536.032 658.645 542.241 666.587 545.561L672.938 548.214C683.249 529.262 691.542 509.312 697.68 488.676L691.424 486.062C687.453 484.405 683.28 483.564 679.025 483.564ZM102.174 488.198C108.276 508.839 116.538 528.804 126.817 547.775L135.718 544.116C152.159 537.358 160.038 518.486 153.284 502.045C148.291 489.899 136.583 482.052 123.446 482.052C119.25 482.052 115.133 482.873 111.205 484.483L102.174 488.198ZM732.674 432.236H744.082C761.857 432.236 776.316 417.773 776.316 399.998C776.316 382.223 761.857 367.764 744.082 367.764H732.674C733.696 378.453 734.213 389.245 734.213 399.998C734.213 410.751 733.696 421.543 732.674 432.236ZM700.657 367.764C682.882 367.764 668.423 382.223 668.423 399.998C668.423 417.773 682.882 432.236 700.657 432.236H708.875C709.972 421.559 710.529 410.759 710.529 399.998C710.529 389.241 709.972 378.438 708.875 367.764H700.657ZM91.1248 432.236H99.3393C117.114 432.236 131.577 417.773 131.577 399.998C131.577 382.223 117.114 367.764 99.3393 367.764H91.1248C90.0275 378.438 89.4709 389.241 89.4709 399.998C89.4748 410.759 90.0275 421.559 91.1248 432.236ZM55.9223 367.764C38.1473 367.764 23.6842 382.223 23.6842 399.998C23.6842 417.773 38.1434 432.236 55.9183 432.236H67.3262C66.3038 421.543 65.7867 410.751 65.7867 399.998C65.7867 389.245 66.3038 378.453 67.3262 367.764H55.9223ZM673.744 253.267L667.38 255.88C659.415 259.156 653.202 265.338 649.886 273.28C646.566 281.226 646.542 289.985 649.815 297.951C654.808 310.097 666.516 317.944 679.649 317.944C683.845 317.944 687.962 317.123 691.89 315.513L698.162 312.935C692.134 292.267 683.951 272.273 673.744 253.267ZM102.659 310.172L111.671 313.934C115.646 315.592 119.814 316.432 124.073 316.436C124.077 316.436 124.077 316.436 124.077 316.436C137.131 316.436 148.816 308.652 153.841 296.609C157.16 288.659 157.184 279.9 153.912 271.934C150.635 263.968 144.458 257.755 136.516 254.439L127.634 250.733C117.248 269.644 108.88 289.563 102.659 310.172ZM695.758 244.219C705.82 263.289 713.999 283.271 720.18 303.884L732.05 299.009C748.491 292.251 756.37 273.379 749.612 256.938C744.618 244.792 732.911 236.944 719.778 236.944C715.582 236.944 711.465 237.765 707.537 239.376L695.758 244.219ZM84.0433 235.215C70.9854 235.215 59.3012 243 54.2762 255.043C50.9565 262.989 50.9328 271.748 54.2052 279.714C57.4815 287.68 63.663 293.893 71.6051 297.209L80.6959 301.002C87.063 280.444 95.4235 260.542 105.659 241.559L96.4419 237.71C92.4669 236.056 88.2985 235.215 84.0433 235.215ZM595.598 158.806L589.799 164.605C583.712 170.696 580.357 178.792 580.357 187.401C580.357 196.01 583.708 204.102 589.799 210.193C595.89 216.284 603.986 219.639 612.591 219.639C621.204 219.639 629.296 216.284 635.387 210.193L641.186 204.39C627.611 187.669 612.331 172.389 595.598 158.806ZM158.81 204.394L164.609 210.197C170.7 216.288 178.796 219.643 187.401 219.643C196.014 219.643 204.106 216.288 210.197 210.197C222.765 197.629 222.765 177.177 210.197 164.605L204.394 158.806C187.669 172.389 172.389 187.669 158.81 204.394ZM612.433 141.979C629.055 155.68 644.324 170.944 658.021 187.567L666.098 179.494C678.666 166.926 678.666 146.475 666.098 133.902C660.007 127.816 651.911 124.46 643.302 124.46C634.692 124.46 626.6 127.816 620.509 133.902L612.433 141.979ZM156.698 124.46C148.085 124.46 139.993 127.816 133.906 133.902C127.816 139.993 124.464 148.089 124.464 156.698C124.464 165.308 127.816 173.4 133.906 179.491L141.979 187.563C155.68 170.941 170.948 155.672 187.571 141.975L179.498 133.898C173.404 127.816 165.308 124.46 156.698 124.46ZM490.625 102.904L487.61 110.124C484.294 118.07 484.27 126.829 487.543 134.795C490.815 142.76 496.997 148.973 504.939 152.289C508.914 153.947 513.086 154.792 517.345 154.792C530.399 154.792 542.083 147.008 547.108 134.964L549.994 128.041C531.118 117.604 511.219 109.18 490.625 102.904ZM254.017 125.858L257.431 134.171C262.425 146.317 274.132 154.164 287.265 154.164C291.461 154.164 295.578 153.343 299.506 151.733C315.947 144.971 323.826 126.102 317.068 109.662L313.756 101.605C293.068 107.574 273.047 115.705 254.017 125.858ZM367.764 91.1288V99.3433C367.764 117.118 382.227 131.577 400.002 131.577C417.777 131.577 432.24 117.118 432.24 99.3433V91.1288C410.881 88.9301 389.119 88.9301 367.764 91.1288ZM499.795 80.9486C520.337 87.367 540.224 95.7788 559.175 106.062L563.841 94.8906C570.686 78.4854 562.914 59.5696 546.508 52.721C542.533 51.0631 538.365 50.2223 534.106 50.2223C521.052 50.2223 509.368 58.0065 504.339 70.0499L499.795 80.9486ZM270.726 49.5039C266.53 49.5039 262.413 50.3249 258.485 51.9354C250.519 55.2118 244.306 61.3933 240.99 69.3354C237.671 77.2815 237.647 86.0407 240.919 94.0064L244.961 103.843C264.055 93.8327 284.056 85.7051 304.693 79.5788L300.552 69.4973C295.567 57.3512 283.859 49.5039 270.726 49.5039ZM399.998 65.7907C410.751 65.7907 421.543 66.3078 432.236 67.3302V55.9223C432.236 38.1473 417.773 23.6842 399.998 23.6842C382.223 23.6842 367.76 38.1473 367.76 55.9223V67.3302C378.453 66.3078 389.249 65.7907 399.998 65.7907Z" />
</svg>
