<svg width="800" height="800" viewBox="0 0 800 800"  xmlns="http://www.w3.org/2000/svg">
<g clip-path="url(#clip0_409_32)">
<path d="M304.314 641.167C303.961 634.411 298.167 629.239 291.448 629.574C284.694 629.927 279.506 635.685 279.854 642.439C280.004 645.314 280.067 648.21 280.039 651.044C279.834 655.978 278.937 666.938 278.269 670.908C278.042 671.805 277.836 672.703 277.647 673.599C270.44 700.622 248.119 719.467 223.273 719.467C197.904 719.467 175.406 700.064 168.554 672.286L168.525 672.174C168.464 671.88 168.403 671.586 168.336 671.288C167.748 668.311 166.729 656.553 166.503 651.047C166.069 606.786 186.628 560.631 223.273 522.858C246.44 546.756 263.378 574.299 272.539 603.113C274.587 609.556 281.476 613.124 287.919 611.072C294.362 609.024 297.926 602.138 295.878 595.692C284.387 559.528 262.175 525.319 231.647 496.76C226.936 492.356 219.622 492.358 214.915 496.761C167.99 540.661 141.422 597.058 142.022 651.491C142.023 651.603 142.026 651.719 142.031 651.833C142.214 656.549 143.267 670.975 144.379 676.347C144.398 676.431 144.415 676.517 144.436 676.602L144.598 677.361C144.619 677.453 144.636 677.542 144.659 677.633L144.733 677.936C144.748 678.006 144.765 678.078 144.781 678.149C154.337 716.894 186.614 743.958 223.278 743.958C259.337 743.958 291.467 717.461 301.415 679.525C301.469 679.317 301.519 679.11 301.562 678.9C301.72 678.135 301.895 677.366 302.095 676.602C302.17 676.317 302.234 676.03 302.287 675.741C303.306 670.255 304.312 657.141 304.519 651.83C304.523 651.716 304.526 651.602 304.528 651.488C304.564 648.085 304.494 644.613 304.314 641.167Z" />
<path d="M276.892 462.162C281.128 458.423 283.822 452.97 283.822 446.887V398.208C283.822 387.889 276.114 379.359 266.16 378.016C268.344 372.702 269.553 366.895 269.553 360.814C269.553 348.666 264.741 337.617 256.922 329.409C264.744 321.2 269.553 310.147 269.553 297.997C269.553 276.93 255.116 259.148 235.527 253.816V216.977C255.116 211.592 269.553 193.636 269.553 172.361C269.553 164.362 267.499 156.839 263.91 150.27C271.713 145.716 278.791 139.842 284.786 132.777C289.161 127.62 288.528 119.894 283.371 115.519C278.216 111.144 270.488 111.777 266.113 116.934C255.413 129.547 239.8 136.78 223.283 136.78C192.324 136.78 167.135 111.592 167.135 80.6328C167.135 49.675 192.324 24.4875 223.283 24.4875C254.241 24.4875 279.428 49.675 279.428 80.6328C279.428 82.9219 279.288 85.2344 279.014 87.5031C278.2 94.2172 282.983 100.319 289.696 101.134C296.392 101.945 302.513 97.1672 303.327 90.4531C303.721 87.2094 303.919 83.9047 303.919 80.6328C303.916 36.1719 267.744 0 223.28 0C178.817 0 142.642 36.1719 142.642 80.6344C142.642 110.292 158.749 136.244 182.663 150.25C179.066 156.823 177.006 164.353 177.006 172.361C177.006 193.636 191.446 211.594 211.036 216.977V253.816C191.446 259.147 177.006 276.928 177.006 297.997C177.006 310.147 181.816 321.2 189.639 329.409C181.819 337.617 177.006 348.666 177.006 360.814C177.006 366.897 178.216 372.7 180.4 378.016C170.442 379.358 162.736 387.891 162.736 398.208V446.887C162.736 452.972 165.427 458.427 169.667 462.167C115.788 515.564 84.2846 585.073 85.244 652.858C85.2893 655.003 86.3955 676.917 88.9111 688.395C88.9783 688.762 89.0986 689.422 89.1393 689.622C89.294 690.402 89.4924 691.166 89.7268 691.906C105.66 755.577 160.505 800 223.28 800C286.694 800 341.764 754.92 357.203 690.375C357.253 690.161 357.3 689.948 357.339 689.734C357.438 689.35 357.524 688.966 357.602 688.584C360.039 677.664 361.141 657.577 361.296 653.387C361.308 653.18 361.317 652.972 361.321 652.761C362.274 585.053 330.771 515.559 276.892 462.162ZM201.497 172.361C201.497 167.483 203.13 162.988 205.85 159.352C211.467 160.594 217.297 161.27 223.281 161.27C229.206 161.27 235.05 160.622 240.724 159.369C243.436 163.002 245.063 167.489 245.063 172.361C245.063 184.37 235.292 194.144 223.281 194.144C211.269 194.144 201.497 184.372 201.497 172.361ZM223.28 276.666C235.289 276.666 245.061 286.234 245.061 297.997C245.061 309.758 235.291 319.327 223.28 319.327C211.269 319.327 201.496 309.759 201.496 297.997C201.497 286.234 211.269 276.666 223.28 276.666ZM245.061 360.814C245.061 367.755 241.644 373.913 236.386 377.809H210.174C204.914 373.911 201.497 367.753 201.497 360.814C201.497 353.017 205.805 346.2 212.202 342.481C215.755 343.348 219.461 343.817 223.28 343.817C227.097 343.817 230.805 343.348 234.356 342.481C240.752 346.202 245.061 353.017 245.061 360.814ZM187.227 402.3H259.33V442.797H187.227V402.3ZM336.828 652.331C336.749 656.064 335.544 675.095 333.685 683.333C333.66 683.438 333.639 683.541 333.617 683.642C333.599 683.736 333.575 683.82 333.55 683.9C333.371 684.484 333.235 685.075 333.146 685.67C320.031 738.617 274.994 775.511 223.281 775.511C171.633 775.511 126.441 738.509 113.38 685.534C113.303 685.227 113.217 684.923 113.117 684.622C113.055 684.289 112.969 683.809 112.967 683.8C112.936 683.631 112.903 683.464 112.864 683.295C111.024 675.08 109.81 656.05 109.727 652.422C108.791 586.031 142.822 517.411 200.06 467.286H246.497C303.624 517.316 337.638 585.772 336.839 652.039C336.833 652.136 336.83 652.233 336.828 652.331Z" />
<path d="M223.278 43.9033C203.025 43.9033 186.547 60.3799 186.547 80.6346C186.547 100.888 203.025 117.366 223.278 117.366C243.531 117.366 260.009 100.888 260.009 80.6346C260.009 60.383 243.531 43.9033 223.278 43.9033ZM223.278 92.8768C216.527 92.8768 211.036 87.3861 211.036 80.6346C211.036 73.883 216.527 68.3924 223.278 68.3924C230.03 68.3924 235.52 73.883 235.52 80.6346C235.52 87.3861 230.03 92.8768 223.278 92.8768Z" />
<path d="M576.716 43.9033C556.462 43.9033 539.984 60.3814 539.984 80.6346C539.984 100.888 556.462 117.366 576.716 117.366C596.969 117.366 613.447 100.888 613.447 80.6346C613.447 60.383 596.969 43.9033 576.716 43.9033ZM576.716 92.8768C569.964 92.8768 564.473 87.3846 564.473 80.6346C564.473 73.883 569.964 68.3924 576.716 68.3924C583.467 68.3924 588.958 73.883 588.958 80.6346C588.958 87.3861 583.466 92.8768 576.716 92.8768Z" />
<path d="M585.084 496.76C580.373 492.356 573.059 492.358 568.353 496.761C521.429 540.66 494.861 597.058 495.459 651.491C495.461 651.605 495.464 651.719 495.469 651.833C495.651 656.549 496.704 670.977 497.817 676.347C497.834 676.431 497.853 676.517 497.873 676.6L498.036 677.361C498.056 677.453 498.073 677.542 498.095 677.631L498.17 677.935C498.186 678.006 498.203 678.077 498.218 678.149C507.775 716.894 540.05 743.958 576.714 743.958C612.773 743.958 644.904 717.461 654.853 679.525C654.906 679.317 654.958 679.11 655 678.9C655.158 678.135 655.333 677.366 655.533 676.602C655.608 676.316 655.672 676.027 655.725 675.738C656.745 670.241 657.75 657.133 657.956 651.833C657.961 651.719 657.964 651.605 657.965 651.491C658.572 597.049 632.004 540.652 585.084 496.76ZM631.711 670.911C631.484 671.806 631.278 672.705 631.089 673.602C623.883 700.625 601.561 719.47 576.714 719.47C551.347 719.47 528.848 700.067 521.997 672.288L521.967 672.175C521.906 671.881 521.845 671.588 521.778 671.289C521.19 668.316 520.172 656.555 519.945 651.049C519.511 606.785 540.065 560.631 576.715 522.858C613.358 560.624 633.912 606.777 633.479 651.046C633.276 655.967 632.381 666.93 631.711 670.911Z" />
<path d="M689.969 545.183C687.047 539.083 679.731 536.506 673.636 539.428C667.538 542.348 664.958 549.661 667.881 555.761C682.916 587.156 690.656 620.439 690.278 652.037C690.274 652.137 690.27 652.234 690.269 652.334C690.189 656.067 688.984 675.097 687.122 683.333C687.097 683.436 687.077 683.541 687.055 683.645C687.033 683.75 687.006 683.848 686.978 683.941C686.803 684.512 686.672 685.092 686.584 685.677C673.47 738.62 628.431 775.511 576.719 775.511C525.072 775.511 479.878 738.509 466.819 685.534C466.742 685.227 466.653 684.922 466.556 684.622C466.494 684.289 466.408 683.809 466.406 683.8C466.375 683.631 466.342 683.464 466.303 683.295C464.461 675.075 463.247 656.05 463.164 652.422C462.23 586.031 496.264 517.411 553.499 467.286H599.939C617.888 482.983 633.694 500.586 647.055 519.936C650.897 525.498 658.522 526.898 664.089 523.055C669.653 519.213 671.05 511.587 667.208 506.02C656.355 490.302 644.023 475.652 630.369 462.131C634.584 458.391 637.258 452.953 637.258 446.887V398.208C637.258 387.889 629.552 379.359 619.595 378.016C621.778 372.702 622.989 366.895 622.989 360.814C622.989 348.666 618.178 337.617 610.358 329.409C618.18 321.2 622.989 310.147 622.989 297.997C622.989 291.233 617.506 285.752 610.744 285.752C603.98 285.752 598.498 291.233 598.498 297.997C598.498 309.758 588.727 319.327 576.716 319.327C564.705 319.327 554.933 309.759 554.933 297.997C554.933 286.236 564.705 276.666 576.716 276.666C580.658 276.666 584.516 277.705 587.872 279.67C593.706 283.091 601.209 281.128 604.627 275.292C608.045 269.458 606.084 261.956 600.248 258.538C596.708 256.463 592.908 254.877 588.963 253.806V216.975C608.552 211.592 622.991 193.634 622.991 172.359C622.991 164.352 620.931 156.822 617.333 150.248C641.247 136.242 657.353 110.289 657.353 80.6328C657.353 36.1719 621.181 0 576.719 0C532.255 0 496.08 36.1719 496.08 80.6359C496.08 110.295 512.186 136.247 536.102 150.252C532.505 156.825 530.445 164.355 530.445 172.362C530.445 193.637 544.884 211.595 564.473 216.978V253.817C544.884 259.148 530.445 276.93 530.445 297.998C530.445 310.148 535.255 321.202 543.077 329.411C535.256 337.619 530.445 348.667 530.445 360.816C530.445 366.898 531.656 372.702 533.839 378.017C523.881 379.359 516.175 387.892 516.175 398.209V446.889C516.175 452.973 518.866 458.428 523.106 462.169C469.227 515.566 437.725 585.075 438.681 652.859C438.727 655.005 439.833 676.911 442.348 688.397C442.416 688.763 442.538 689.425 442.578 689.622C442.733 690.4 442.93 691.169 443.166 691.908C459.097 755.578 513.941 800.002 576.717 800.002C640.131 800.002 695.203 754.922 710.642 690.377C710.694 690.159 710.741 689.941 710.78 689.723C710.877 689.345 710.961 688.966 711.039 688.586C713.478 677.663 714.58 657.573 714.734 653.389C714.747 653.183 714.756 652.975 714.759 652.766C715.259 617.297 706.686 580.095 689.969 545.183ZM520.57 80.6344C520.57 49.6766 545.759 24.4891 576.719 24.4891C607.677 24.4891 632.864 49.6766 632.864 80.6344C632.864 111.594 607.677 136.781 576.719 136.781C545.758 136.78 520.57 111.595 520.57 80.6344ZM554.936 172.361C554.936 167.483 556.569 162.988 559.289 159.352C564.905 160.594 570.734 161.27 576.719 161.27C582.703 161.27 588.531 160.594 594.148 159.352C596.869 162.988 598.502 167.481 598.502 172.361C598.502 184.37 588.73 194.144 576.719 194.144C564.708 194.144 554.936 184.372 554.936 172.361ZM565.641 342.481C569.194 343.348 572.902 343.817 576.719 343.817C580.536 343.817 584.244 343.348 587.797 342.481C594.192 346.2 598.502 353.017 598.502 360.814C598.502 367.755 595.083 373.913 589.823 377.809H563.611C558.352 373.911 554.934 367.753 554.934 360.814C554.936 353.017 559.245 346.202 565.641 342.481ZM540.666 402.3H612.769V442.797H540.666V402.3Z" />
</g>
<defs>
<clipPath id="clip0_409_32">
<rect width="800" height="800" fill="white"/>
</clipPath>
</defs>
</svg>
