<svg width="693" height="800" viewBox="0 0 693 800"  xmlns="http://www.w3.org/2000/svg">
<path d="M162.479 62.1786C165.143 64.8427 169.139 67.5053 173.134 67.5053C175.798 67.5053 178.461 66.174 179.793 66.174C186.453 62.1786 187.784 54.1878 183.789 47.5282L157.152 7.57403C153.157 0.914482 145.166 -0.416804 138.506 3.57862C133.18 7.57403 131.847 15.5649 135.842 22.2244L162.479 62.1786Z" />
<path d="M625.948 174.05C629.943 174.05 632.607 172.719 635.27 170.055L675.224 130.101C680.551 124.774 680.551 116.783 675.224 111.455C669.897 106.128 661.906 106.128 656.578 111.455L616.624 151.409C611.297 156.736 611.297 164.727 616.624 170.055C619.29 172.719 621.952 174.05 625.948 174.05Z" />
<path d="M49.2781 111.455C43.9514 106.128 35.9606 106.128 30.6323 111.455C25.3041 116.782 25.3056 124.773 30.6323 130.101L70.5865 170.055C73.2507 172.719 75.9132 174.05 79.9086 174.05C83.9041 174.05 86.5682 172.719 89.2308 170.055C94.5575 164.728 94.5575 156.737 89.2308 151.409L49.2781 111.455Z" />
<path d="M511.415 64.843C514.079 66.1743 516.742 67.5071 519.406 67.5071C523.401 67.5071 527.397 64.843 530.061 60.8476L556.698 20.8934C560.692 14.2338 559.36 6.24298 552.701 2.24756C546.041 -1.74786 538.05 -0.416573 534.055 6.24298L507.418 46.1972C503.424 52.8567 504.756 60.8476 511.415 64.843Z" />
<path d="M531.389 740.069C527.393 733.41 519.403 732.078 512.743 736.074C506.083 740.069 504.752 748.06 508.748 754.72L535.384 794.674C538.048 797.338 542.044 800 546.039 800C548.703 800 551.366 798.669 554.03 798.669C560.69 794.674 562.021 786.683 558.025 780.023L531.389 740.069Z" />
<path d="M57.2656 630.859L17.3114 670.813C11.9847 676.14 11.9847 684.131 17.3114 689.459C19.9756 692.123 22.6381 693.455 26.6336 693.455C30.629 693.455 33.2931 692.123 35.9557 689.459L75.9099 649.505C81.2366 644.178 81.2366 636.188 75.9099 630.859C70.5832 625.533 62.5923 625.533 57.2656 630.859Z" />
<path d="M621.953 630.859C616.627 625.533 608.636 625.533 603.308 630.859C597.981 636.186 597.981 644.177 603.308 649.505L643.262 689.459C645.926 692.123 648.588 693.455 652.584 693.455C656.579 693.455 659.243 692.123 661.906 689.459C667.233 684.133 667.233 676.142 661.906 670.813L621.953 630.859Z" />
<path d="M179.796 734.741C173.136 730.745 165.145 732.077 161.15 738.736L134.513 778.69C130.518 785.35 131.849 793.341 138.509 797.336C141.173 798.667 143.835 800 146.499 800C150.495 800 154.49 797.336 157.154 793.341L183.791 753.387C187.786 746.727 186.454 738.736 179.796 734.741Z" />
<path d="M346.267 67.5053C354.258 67.5053 359.584 62.1786 359.584 54.1878V14.2336C359.584 6.24272 354.258 0.916016 346.267 0.916016C338.276 0.916016 332.949 6.24272 332.949 14.2336V54.1878C332.949 62.1786 338.276 67.5053 346.267 67.5053Z" />
<path d="M346.267 733.409C338.276 733.409 332.949 738.736 332.949 746.727V786.681C332.949 794.672 338.276 799.998 346.267 799.998C354.258 799.998 359.584 794.672 359.584 786.681V746.727C359.586 738.736 354.258 733.409 346.267 733.409Z" />
<path d="M13.3175 333.868H53.2717C61.2626 333.868 66.5893 328.541 66.5893 320.55C66.5893 312.559 61.2626 307.232 53.2717 307.232H13.3175C5.32671 307.232 0 312.559 0 320.55C0 328.541 5.32671 333.868 13.3175 333.868Z" />
<path d="M53.2717 507.001C61.2626 507.001 66.5893 501.675 66.5893 493.684C66.5893 485.693 61.2626 480.366 53.2717 480.366H13.3175C5.32671 480.366 0 485.693 0 493.684C0 501.675 5.32671 507.001 13.3175 507.001H53.2717Z" />
<path d="M639.267 307.23C631.276 307.23 625.949 312.557 625.949 320.548C625.949 328.539 631.276 333.866 639.267 333.866H679.221C687.212 333.866 692.539 328.539 692.539 320.548C692.539 312.557 687.212 307.23 679.221 307.23H639.267Z" />
<path d="M679.221 480.366H639.267C631.276 480.366 625.949 485.693 625.949 493.684C625.949 501.675 631.276 507.001 639.267 507.001H679.221C687.212 507.001 692.539 501.675 692.539 493.684C692.539 485.693 687.212 480.366 679.221 480.366Z" />
<path d="M584.662 592.744V202.019C585.388 199.843 585.302 197.674 584.662 195.714V195.359L584.454 195.117C583.9 193.713 583.062 192.428 581.998 191.364L502.089 98.138C501.531 97.5793 500.903 97.0939 500.24 96.6522L498.094 94.1426H193.111L106.543 195.359V605.556L107.954 607.206C108.291 607.988 108.686 608.77 109.207 609.552L189.115 702.778C189.674 703.336 190.302 703.822 190.965 704.263L193.111 706.773H499.427L517.692 684.798L583.331 608.22C585.995 605.556 587.326 601.561 585.995 597.565C585.993 595.888 585.502 594.224 584.662 592.744ZM197.106 576.257L235.729 614.88L198.439 670.816L141.172 604.225L197.106 576.257ZM258.369 600.23L213.088 554.949V247.301L259.702 200.688H434.169L456.81 223.329L479.451 245.97V554.949L434.17 600.23H258.369ZM495.432 576.257L551.367 604.225L494.1 670.816L456.81 614.88L495.432 576.257ZM495.432 224.66L456.809 186.037L494.099 130.101L551.366 196.692L495.432 224.66ZM432.393 174.051H261.476L225.961 120.779H467.905L432.393 174.051ZM198.438 130.101L235.728 186.037L197.105 224.66L141.183 196.7L169.802 163.398L198.438 130.101ZM133.18 221.996L186.451 248.633V551.618L133.18 578.255V221.996ZM260.145 626.865H432.393L467.908 680.136H224.631L260.145 626.865ZM506.085 551.618V247.3L560.689 219.998V578.92L506.085 551.618Z" />
<path d="M438.165 441.744C438.165 399.126 392.884 376.486 391.551 376.486C379.565 368.495 372.906 360.504 371.574 349.849C367.579 327.208 387.556 299.24 395.547 289.918C399.542 285.923 400.873 279.263 396.878 273.936C392.883 268.61 386.223 265.945 380.896 268.61C375.57 269.941 253.043 319.219 253.043 440.413C253.043 492.353 294.328 533.639 346.269 533.639C398.211 533.639 439.498 492.353 438.165 441.744ZM346.27 507.002C308.98 507.002 279.68 477.703 279.68 440.411C279.68 379.149 318.303 339.194 350.266 316.553C346.27 327.208 343.606 340.526 346.27 353.843C350.266 372.489 360.921 387.138 380.898 399.124C380.898 399.124 412.861 415.106 412.861 440.41C412.861 477.703 383.562 507.002 346.27 507.002Z" />
</svg>
