<svg width="550" height="600" viewBox="0 0 550 600"  xmlns="http://www.w3.org/2000/svg">
<path d="M354.33 293.823L347.525 255.236C362.136 247.856 371.627 232.741 371.627 216.125V215.75C371.627 215.695 371.613 215.639 371.613 215.584C449.87 178.319 500 99.7016 500 12.5C500 5.59687 494.409 0 487.5 0C480.591 0 475 5.59687 475 12.5C475 88.8062 431.827 157.763 364.125 191.502C354.75 177.752 337.75 170.002 320.375 173.002C300.625 176.502 286.128 192.998 284.375 212.248C278.2 212.536 271.798 212.536 265.623 212.248C263.872 193 249.373 176.502 229.623 173.002C227.123 172.502 224.623 172.377 222.123 172.377C207.498 172.377 193.873 179.752 185.873 191.502C118.173 157.763 75 88.8062 75 12.5C75 5.59687 69.4094 0 62.5 0C55.5906 0 50 5.59687 50 12.5C50 99.7016 100.13 178.319 178.389 215.584C178.389 215.639 178.375 215.695 178.375 215.75C178.125 232.491 187.741 247.856 202.477 255.236L195.672 293.823C176.8 278.883 148.85 278.898 129.5 296.625C110.125 314.375 108 344.625 123 366.25L164.125 425.625C173.375 439 191.625 442.25 204.875 432.75L263.875 391.125C268.125 388 271.875 384.5 275 380.375C278.125 384.5 281.875 388 286.125 391.125L345.125 432.75C358.375 442.25 376.625 439 385.875 425.625L427 366.25C442 344.625 439.875 314.375 420.5 296.625C401.152 278.898 373.202 278.883 354.33 293.823ZM324.625 197.625C325.75 197.5 326.875 197.375 328 197.375C336.875 197.375 344.75 203.75 346.375 212.875C348.239 222.941 341.447 232.62 331.419 234.575C331.341 234.588 331.267 234.556 331.189 234.57C331.122 234.583 331.073 234.63 331.006 234.642C320.847 236.241 311.237 229.419 309.5 219.375C307.625 209.125 314.5 199.5 324.625 197.625ZM203.625 212.875C205.375 202.625 215.125 195.875 225.375 197.625C235.5 199.5 242.375 209.125 240.5 219.375C238.764 229.419 229.153 236.241 218.994 234.642C218.927 234.63 218.878 234.583 218.811 234.57C218.733 234.556 218.659 234.589 218.581 234.577C208.553 232.622 201.761 222.942 203.625 212.875ZM241.375 363L210.375 385C206.125 388.125 201 389.75 195.875 389.75C194.5 389.75 193 389.625 191.5 389.375C184.875 388.125 179.125 384.375 175.25 378.875L153.75 347.5C149.75 341.875 151.25 334.125 156.875 330.125C162.625 326.25 170.375 327.75 174.25 333.375L195.875 364.75L226.875 342.625C232.5 338.625 240.25 340 244.25 345.625C248.25 351.25 247 359 241.375 363ZM275 313.75C261.5 297.625 239.75 291.75 220.375 298C220.352 298.008 220.328 298.02 220.305 298.028L227.078 259.627C227.094 259.625 227.109 259.627 227.125 259.625C241.25 257.875 253.75 249.375 260.375 237C260.378 236.994 260.381 236.984 260.384 236.978C265.097 237.292 269.942 237.5 275 237.5C280.058 237.5 284.902 237.292 289.616 236.978C289.619 236.984 289.622 236.994 289.625 237C296.25 249.375 308.75 257.875 322.875 259.625C322.891 259.627 322.906 259.625 322.922 259.627L329.695 298.028C329.672 298.02 329.648 298.008 329.625 298C310.25 291.75 288.5 297.625 275 313.75ZM396.25 347.5L374.75 378.875C370.875 384.375 365.125 388.125 358.5 389.375C357 389.625 355.5 389.75 354.125 389.75C349 389.75 343.875 388.125 339.625 385.125L308.625 363C303 359 301.75 351.25 305.75 345.625C309.75 340 317.5 338.625 323.125 342.625L354.125 364.75L375.75 333.375C379.625 327.75 387.375 326.25 393.125 330.125C398.75 334.125 400.25 341.875 396.25 347.5ZM287.5 537.5V587.5C287.5 594.403 281.909 600 275 600C268.091 600 262.5 594.403 262.5 587.5V537.5C262.5 530.597 268.091 525 275 525C281.909 525 287.5 530.597 287.5 537.5ZM80.1516 412.5C83.6062 418.481 81.5547 426.123 75.5734 429.578L32.2625 454.578C30.2969 455.714 28.1484 456.25 26.025 456.25C21.7031 456.25 17.5047 454.009 15.1844 450C11.7297 444.019 13.7813 436.377 19.7625 432.922L63.0734 407.922C69.0312 404.473 76.6844 406.519 80.1516 412.5ZM534.814 450C532.495 454.009 528.295 456.25 523.973 456.25C521.85 456.25 519.702 455.712 517.736 454.578L474.425 429.578C468.444 426.123 466.392 418.481 469.847 412.5C473.302 406.519 480.955 404.473 486.925 407.922L530.236 432.922C536.219 436.377 538.269 444.019 534.814 450ZM417.078 521.081C420.533 527.056 418.481 534.705 412.5 538.159C410.534 539.295 408.386 539.831 406.262 539.831C401.941 539.831 397.742 537.591 395.422 533.581L382.922 511.933C379.467 505.958 381.519 498.309 387.5 494.855C393.458 491.394 401.111 493.445 404.578 499.433L417.078 521.081ZM550 300C550 306.903 544.409 312.5 537.5 312.5H512.5C505.591 312.5 500 306.903 500 300C500 293.097 505.591 287.5 512.5 287.5H537.5C544.409 287.5 550 293.097 550 300ZM167.078 511.933L154.578 533.581C152.259 537.591 148.059 539.831 143.738 539.831C141.614 539.831 139.466 539.294 137.5 538.159C131.519 534.705 129.467 527.058 132.922 521.081L145.422 499.433C148.877 493.445 156.519 491.394 162.5 494.855C168.481 498.309 170.533 505.958 167.078 511.933ZM37.5 312.5H12.5C5.59063 312.5 0 306.903 0 300C0 293.097 5.59063 287.5 12.5 287.5H37.5C44.4094 287.5 50 293.097 50 300C50 306.903 44.4094 312.5 37.5 312.5Z" />
</svg>
