<svg width="750" height="750" viewBox="0 0 750 750"  xmlns="http://www.w3.org/2000/svg">
<path d="M84.1092 218.386V223.958L79.5525 221.172C77.8383 220.123 75.6463 220.746 74.6566 222.561C73.6669 224.376 74.2542 226.698 75.9684 227.746L80.525 230.532L75.9684 233.318C74.2542 234.366 73.6669 236.688 74.6566 238.503C75.3203 239.721 76.5251 240.402 77.7638 240.402C78.3716 240.402 78.9881 240.238 79.5525 239.893L84.1092 237.107V242.679C84.1092 244.775 85.7139 246.475 87.6933 246.475C89.6727 246.475 91.2774 244.775 91.2774 242.679V237.107L95.8341 239.893C96.3985 240.238 97.015 240.402 97.6228 240.402C98.8615 240.402 100.066 239.721 100.73 238.503C101.72 236.688 101.132 234.366 99.4182 233.318L94.8616 230.532L99.4182 227.746C101.132 226.698 101.72 224.376 100.73 222.561C99.7403 220.746 97.5483 220.124 95.8341 221.172L91.2774 223.958V218.386C91.2774 216.289 89.6727 214.59 87.6933 214.59C85.7139 214.59 84.1092 216.289 84.1092 218.386Z" />
<path d="M158.439 180.052C159.487 178.244 160.092 176.12 160.092 173.848C160.092 168.617 156.885 164.167 152.446 162.579V150.365C165.538 134.412 173.473 113.592 173.473 90.8462C173.473 40.7533 134.992 0 87.6922 0C40.3924 0 1.91155 40.7533 1.91155 90.8462C1.91155 113.592 9.84685 134.412 22.9386 150.365V162.579C18.499 164.167 15.2924 168.617 15.2924 173.848C15.2924 176.12 15.8979 178.245 16.9459 180.052C7.04166 184.129 0 194.326 0 206.239C0 221.727 11.8979 234.328 26.5227 234.328C41.1475 234.328 53.0454 221.727 53.0454 206.239C53.0454 194.326 46.0038 184.129 36.0996 180.052C37.1476 178.244 37.753 176.12 37.753 173.848C37.753 168.617 34.5464 164.167 30.1069 162.579V158.122C44.5147 171.967 63.374 180.7 84.108 181.607V186.872C79.6685 188.461 76.4619 192.91 76.4619 198.141C76.4619 200.413 77.0673 202.538 78.1154 204.346C68.2112 208.422 61.1695 218.619 61.1695 230.532C61.1695 246.02 73.0674 258.621 87.6922 258.621C102.317 258.621 114.215 246.02 114.215 230.532C114.215 218.619 107.173 208.422 97.2691 204.345C98.3171 202.537 98.9225 200.413 98.9225 198.141C98.9225 192.91 95.7159 188.46 91.2763 186.872V181.607C112.01 180.699 130.87 171.967 145.278 158.122V162.578C140.838 164.166 137.631 168.616 137.631 173.847C137.631 176.119 138.237 178.244 139.285 180.052C129.381 184.129 122.339 194.326 122.339 206.239C122.339 221.727 134.237 234.328 148.862 234.328C163.486 234.328 175.384 221.727 175.384 206.239C175.384 194.326 168.343 184.129 158.439 180.052ZM45.8771 206.239C45.8771 217.541 37.1949 226.736 26.5227 226.736C15.8505 226.736 7.1683 217.541 7.1683 206.239C7.1683 194.936 15.8505 185.741 26.5227 185.741C37.1949 185.741 45.8771 194.936 45.8771 206.239ZM26.5227 178.15C24.2829 178.15 22.4607 176.22 22.4607 173.848C22.4607 171.476 24.2829 169.546 26.5227 169.546C28.7626 169.546 30.5847 171.476 30.5847 173.848C30.5847 176.22 28.7626 178.15 26.5227 178.15ZM107.047 230.532C107.047 241.834 98.3644 251.029 87.6922 251.029C77.02 251.029 68.3378 241.834 68.3378 230.532C68.3378 219.229 77.02 210.034 87.6922 210.034C98.3644 210.034 107.047 219.229 107.047 230.532ZM87.6922 202.443C85.4523 202.443 83.6302 200.513 83.6302 198.141C83.6302 195.769 85.4523 193.839 87.6922 193.839C89.9321 193.839 91.7542 195.769 91.7542 198.141C91.7542 200.513 89.9321 202.443 87.6922 202.443ZM87.6922 174.101C44.345 174.101 9.07985 136.753 9.07985 90.8462C9.07985 44.9393 44.345 7.59161 87.6922 7.59161C131.039 7.59161 166.305 44.9393 166.305 90.8462C166.305 136.753 131.039 174.101 87.6922 174.101ZM144.8 173.848C144.8 171.476 146.622 169.546 148.862 169.546C151.102 169.546 152.924 171.476 152.924 173.848C152.924 176.22 151.102 178.15 148.862 178.15C146.622 178.15 144.8 176.22 144.8 173.848ZM148.862 226.736C138.19 226.736 129.507 217.541 129.507 206.239C129.507 194.936 138.19 185.741 148.862 185.741C159.534 185.741 168.216 194.936 168.216 206.239C168.216 217.541 159.534 226.736 148.862 226.736Z" />
<path d="M161.898 198.267C160.908 196.452 158.716 195.829 157.002 196.878L152.445 199.664V194.092C152.445 191.995 150.841 190.296 148.861 190.296C146.882 190.296 145.277 191.995 145.277 194.092V199.664L140.72 196.878C139.006 195.829 136.814 196.452 135.825 198.267C134.835 200.082 135.422 202.404 137.136 203.452L141.693 206.238L137.136 209.024C135.422 210.073 134.835 212.394 135.825 214.209C136.488 215.427 137.693 216.108 138.932 216.108C139.54 216.108 140.156 215.944 140.72 215.599L145.277 212.813V218.385C145.277 220.481 146.882 222.181 148.861 222.181C150.841 222.181 152.445 220.481 152.445 218.385V212.813L157.002 215.599C157.566 215.944 158.183 216.108 158.791 216.108C160.029 216.108 161.234 215.427 161.898 214.209C162.888 212.394 162.3 210.073 160.586 209.024L156.03 206.238L160.586 203.452C162.3 202.404 162.888 200.082 161.898 198.267Z" />
<path d="M22.9373 194.092V199.664L18.3806 196.878C16.666 195.829 14.4744 196.452 13.4847 198.267C12.495 200.082 13.0823 202.404 14.7965 203.452L19.3531 206.238L14.7965 209.024C13.0823 210.073 12.495 212.394 13.4847 214.209C14.1485 215.427 15.3532 216.108 16.5919 216.108C17.1998 216.108 17.8162 215.944 18.3806 215.599L22.9373 212.813V218.385C22.9373 220.481 24.542 222.181 26.5214 222.181C28.5008 222.181 30.1056 220.481 30.1056 218.385V212.813L34.6622 215.599C35.2266 215.944 35.8431 216.108 36.451 216.108C37.6896 216.108 38.8944 215.427 39.5582 214.209C40.5479 212.394 39.9606 210.073 38.2464 209.024L33.6897 206.238L38.2464 203.452C39.9606 202.404 40.5479 200.082 39.5582 198.267C38.5685 196.452 36.3759 195.829 34.6622 196.878L30.1056 199.664V194.092C30.1056 191.995 28.5008 190.296 26.5214 190.296C24.542 190.296 22.9373 191.995 22.9373 194.092Z" />
<path d="M560.338 366.713C553.309 359.249 544.994 353.108 535.788 348.696L574.75 295.183L537.603 258.62H465.334L428.191 295.164L467.149 348.696C457.925 353.108 449.619 359.249 442.581 366.713C427.54 382.642 418.195 404.722 418.195 429.055C418.195 453.392 427.54 475.462 442.581 491.401C457.644 507.354 478.488 517.241 501.468 517.241C524.449 517.241 545.293 507.354 560.338 491.401C575.397 475.462 584.742 453.392 584.742 429.055C584.742 404.722 575.397 382.642 560.338 366.713ZM522.799 343.797L515.412 353.94L519.208 342.886L526.786 320.905L555.94 298.273L522.799 343.797ZM518.329 322.369L511.741 341.539L507.124 354.969L505.492 359.688H496.923L495.313 355.011L490.692 341.6L484.082 322.369L518.329 322.369ZM483.524 314.447L487.904 296.019H514.516L518.896 314.447H483.524ZM538.054 278.002L551.863 291.593L525.948 311.731L521.621 293.421L538.054 278.002ZM470.481 272.49H532.442L532.527 272.594L516.005 288.088H486.931L470.409 272.57L470.481 272.49ZM464.883 278.002L480.883 293.006V293.024L476.449 311.708L450.833 291.829L464.883 278.002ZM447.665 299.208L475.61 320.905L483.202 343.003L486.481 352.532L480.115 343.797L447.665 299.208ZM551.092 481.608C538.37 495.062 520.872 503.366 501.468 503.366C482.066 503.366 464.567 495.062 451.845 481.608C439.133 468.135 431.3 449.603 431.3 429.054C431.3 408.5 439.133 389.973 451.845 376.5C458.523 369.438 466.516 363.793 475.401 360.023L482.368 369.594H520.569L527.54 360.023C536.421 363.793 544.414 369.438 551.092 376.5C563.804 389.973 571.641 408.5 571.641 429.054C571.641 449.603 563.804 468.135 551.092 481.608Z" />
<path d="M501.467 376.766C487.849 376.766 475.471 382.628 466.555 392.08C457.629 401.529 452.094 414.628 452.094 429.055C452.094 443.468 457.629 456.581 466.555 466.025C475.471 475.477 487.85 481.344 501.467 481.344C515.085 481.344 527.463 475.477 536.38 466.025C545.3 456.581 550.841 443.468 550.841 429.055C550.841 414.628 545.3 401.529 536.38 392.08C527.463 382.628 515.085 376.766 501.467 376.766ZM528.435 457.62C521.521 464.938 512.021 469.449 501.467 469.449C490.918 469.449 481.417 464.938 474.498 457.62C467.58 450.284 463.325 440.227 463.325 429.055C463.325 417.874 467.58 407.821 474.498 400.489C481.417 393.167 490.918 388.661 501.467 388.656C512.021 388.661 521.521 393.167 528.435 400.489C535.349 407.82 539.608 417.873 539.608 429.055C539.609 440.227 535.349 450.289 528.435 457.62Z" />
<path d="M358.464 651.021L356.387 638.547C360.847 636.161 363.744 631.275 363.744 625.903V625.782C363.744 625.764 363.739 625.746 363.739 625.728C387.628 613.681 402.93 588.266 402.93 560.076C402.93 557.844 401.223 556.035 399.114 556.035C397.005 556.035 395.298 557.844 395.298 560.076C395.298 584.744 382.12 607.036 361.454 617.943C358.592 613.498 353.403 610.993 348.099 611.962C342.071 613.094 337.645 618.427 337.11 624.65C335.225 624.743 333.271 624.743 331.386 624.65C330.852 618.427 326.426 613.094 320.397 611.962C319.634 611.801 318.871 611.76 318.108 611.76C313.644 611.76 309.485 614.145 307.043 617.943C286.377 607.036 273.198 584.744 273.198 560.076C273.198 557.844 271.492 556.035 269.383 556.035C267.274 556.035 265.567 557.844 265.567 560.076C265.567 588.266 280.869 613.681 304.758 625.728C304.758 625.746 304.754 625.764 304.754 625.782C304.677 631.194 307.613 636.161 312.111 638.547L310.034 651.021C304.273 646.191 295.741 646.196 289.835 651.927C283.92 657.665 283.272 667.444 287.85 674.435L300.404 693.629C303.227 697.953 308.798 699.004 312.843 695.933L330.853 682.476C332.15 681.466 333.295 680.335 334.248 679.001C335.202 680.335 336.347 681.466 337.644 682.476L355.654 695.933C359.699 699.004 365.27 697.953 368.093 693.629L380.646 674.435C385.225 667.444 384.577 657.665 378.662 651.927C372.756 646.196 364.225 646.191 358.464 651.021ZM349.397 619.923C349.74 619.882 350.083 619.842 350.427 619.842C353.136 619.842 355.54 621.903 356.036 624.853C356.605 628.106 354.531 631.236 351.47 631.868C351.446 631.872 351.424 631.862 351.4 631.866C351.38 631.87 351.365 631.885 351.344 631.889C348.243 632.406 345.31 630.201 344.78 626.954C344.207 623.64 346.306 620.529 349.397 619.923ZM312.461 624.853C312.995 621.539 315.972 619.357 319.1 619.923C322.191 620.529 324.29 623.64 323.717 626.954C323.187 630.201 320.254 632.406 317.153 631.889C317.132 631.885 317.117 631.87 317.097 631.866C317.073 631.862 317.05 631.872 317.027 631.868C313.966 631.236 311.892 628.107 312.461 624.853ZM323.984 673.384L314.522 680.496C313.224 681.507 311.66 682.032 310.096 682.032C309.676 682.032 309.218 681.992 308.76 681.911C306.738 681.507 304.983 680.294 303.8 678.516L297.237 668.374C296.016 666.555 296.474 664.05 298.191 662.757C299.946 661.504 302.312 661.989 303.495 663.807L310.096 673.95L319.558 666.798C321.275 665.504 323.641 665.949 324.862 667.767C326.083 669.586 325.701 672.091 323.984 673.384ZM334.248 657.463C330.128 652.25 323.488 650.351 317.574 652.371C317.567 652.374 317.56 652.378 317.553 652.38L319.62 639.966C319.625 639.966 319.63 639.966 319.635 639.966C323.946 639.4 327.762 636.652 329.784 632.652C329.785 632.65 329.786 632.646 329.787 632.644C331.226 632.746 332.705 632.813 334.248 632.813C335.792 632.813 337.271 632.746 338.71 632.644C338.711 632.646 338.712 632.65 338.713 632.652C340.735 636.652 344.551 639.4 348.862 639.966C348.867 639.966 348.872 639.966 348.877 639.966L350.944 652.38C350.937 652.378 350.93 652.374 350.923 652.371C345.009 650.351 338.369 652.25 334.248 657.463ZM371.26 668.374L364.697 678.516C363.514 680.294 361.759 681.507 359.737 681.911C359.279 681.992 358.821 682.032 358.401 682.032C356.837 682.032 355.273 681.507 353.975 680.537L344.512 673.384C342.795 672.091 342.414 669.586 343.635 667.767C344.856 665.949 347.222 665.504 348.939 666.798L358.401 673.95L365.002 663.807C366.185 661.989 368.551 661.504 370.306 662.757C372.023 664.05 372.481 666.555 371.26 668.374ZM338.064 729.796V745.96C338.064 748.191 336.358 750.001 334.248 750.001C332.139 750.001 330.433 748.191 330.433 745.96V729.796C330.433 727.564 332.139 725.755 334.248 725.755C336.358 725.755 338.064 727.564 338.064 729.796ZM274.771 689.386C275.826 691.32 275.199 693.791 273.373 694.907L260.153 702.989C259.553 703.357 258.897 703.53 258.249 703.53C256.93 703.53 255.648 702.805 254.94 701.509C253.885 699.576 254.511 697.105 256.337 695.988L269.558 687.906C271.376 686.792 273.713 687.453 274.771 689.386ZM413.557 701.509C412.849 702.805 411.567 703.53 410.248 703.53C409.599 703.53 408.944 703.356 408.344 702.989L395.123 694.907C393.297 693.791 392.671 691.32 393.725 689.386C394.78 687.453 397.116 686.792 398.939 687.906L412.159 695.988C413.986 697.105 414.611 699.576 413.557 701.509ZM377.618 724.488C378.672 726.42 378.046 728.892 376.22 730.009C375.62 730.376 374.965 730.55 374.316 730.55C372.997 730.55 371.716 729.825 371.007 728.529L367.192 721.531C366.137 719.599 366.763 717.127 368.589 716.01C370.408 714.891 372.744 715.554 373.802 717.49L377.618 724.488ZM418.192 653.018C418.192 655.25 416.486 657.059 414.377 657.059H406.745C404.636 657.059 402.93 655.25 402.93 653.018C402.93 650.786 404.636 648.977 406.745 648.977H414.377C416.486 648.977 418.192 650.786 418.192 653.018ZM301.305 721.531L297.49 728.529C296.782 729.825 295.5 730.55 294.181 730.55C293.532 730.55 292.877 730.376 292.277 730.009C290.451 728.892 289.825 726.42 290.879 724.488L294.695 717.49C295.749 715.554 298.082 714.891 299.908 716.01C301.734 717.127 302.36 719.599 301.305 721.531ZM261.752 657.059H254.12C252.011 657.059 250.305 655.25 250.305 653.018C250.305 650.786 252.011 648.977 254.12 648.977H261.752C263.861 648.977 265.567 650.786 265.567 653.018C265.567 655.25 263.861 657.059 261.752 657.059Z" />
<path d="M731.811 160.537C728.802 150.224 721.953 141.673 715.277 133.772C713.964 132.218 711.288 134.327 712.505 136.037C712.602 136.174 712.699 136.311 712.798 136.448C712.329 137.14 712.155 138.077 712.586 138.996C718.099 150.759 713.472 162.789 717.393 174.61C719.23 180.15 724.371 184.054 729.512 180.073C735.002 175.819 733.508 166.355 731.811 160.537Z" />
<path d="M741.42 140.419C721.835 102.519 677.278 90.1257 642.438 111.128C641.981 109.131 640.847 107.147 639.796 105.748C637.775 103.059 634.94 101.203 631.783 100.477C631.109 91.9556 627.539 82.9913 622.919 78.2512C617 72.1774 606.77 69.5288 598.394 71.5633C602.853 62.1116 595.431 49.0237 586.305 43.7625C581.87 41.2058 575.748 39.9503 569.888 40.3882C572.344 13.6034 539.558 -1.05619 518.846 9.0047C494.359 20.9004 507.518 56.2326 532.098 52.7851C539.759 62.3187 551.72 68.5004 563.251 66.3877C562.624 67.6221 562.115 68.7907 561.779 69.7149C558.464 78.8231 559.767 89.2338 565.561 96.8632C576.9 111.796 603.112 110.783 608.706 91.2286C610.42 92.2347 612 93.6229 613.33 95.6636C614.629 97.6584 615.73 100.03 616.545 102.529C609.756 100.761 602.718 110.204 601.584 116.809C599.708 127.734 607.334 137.742 616.789 141.141C591.44 195.763 647.541 278.82 711.746 244.386C747.09 225.43 760.241 176.835 741.42 140.419ZM632.204 117.737C632.61 118.322 632.928 118.964 633.256 119.596C629.584 122.754 626.452 126.195 623.721 129.817C622.522 129.208 621.431 128.494 620.506 127.099C619.269 125.236 618.95 123.151 619.037 120.975C623.889 120.374 627.203 118.02 629.226 114.591C630.33 115.512 631.366 116.523 632.204 117.737ZM550.577 32.8196C554.47 35.3565 557.23 39.3486 558.098 44.3816C555.807 46.0687 553.963 48.2868 552.891 51.1525C549.841 46.7337 548.739 40.7455 550.7 34.2872C550.864 33.7451 550.784 33.2476 550.577 32.8196ZM565.457 62.6909C557.705 65.1869 550.033 62.7777 543.229 57.9669C540.373 55.9473 537.56 53.5679 535.28 50.8126C535.326 49.8822 534.867 48.9418 533.982 48.7831C531.521 44.0603 528.55 33.8183 533.304 30.573C537.444 29.5718 542.465 29.7232 544.839 30.3075C546.042 30.604 547.174 31.0444 548.267 31.548C547.713 31.6237 547.201 31.9239 546.909 32.5951C543.018 41.5829 545.867 51.2245 551.852 56.9955C551.848 57.2287 551.804 57.4334 551.807 57.6729C551.822 58.9419 553.375 59.7012 554.265 58.9928C557.597 61.3226 561.572 62.5892 565.808 62.1649C565.684 62.3336 565.577 62.5172 565.457 62.6909ZM571.489 57.7039C570.898 57.8068 570.319 58.0401 569.753 58.3539C564.598 59.0027 559.952 57.6344 556.429 54.8841C561.102 46.1965 568.772 41.6102 579.279 45.1954C589.544 48.6987 602.592 63.6498 592.987 73.7616C591.978 74.3657 590.987 75.0046 590.126 75.8135C588.539 66.7314 582.217 59.035 573.46 57.0265C572.603 56.8318 571.936 57.168 571.489 57.7039ZM585.035 86.4897C583.526 85.4799 582.134 84.4254 580.954 82.9405C580.706 82.5943 580.474 82.2271 580.221 81.886C579.942 81.4419 579.659 81.0102 579.417 80.4817C577.221 75.6671 577.94 70.4766 580.192 65.8543C580.241 65.7551 580.196 65.6546 580.217 65.5529C583.846 68.6431 586.475 72.923 587.492 78.0328C587.54 78.276 587.645 78.467 587.775 78.6295C586.371 80.7682 585.416 83.3833 585.035 86.4897ZM616.651 92.4381C610.323 82.9938 599.662 83.3883 590.065 85.7863C596.155 75.811 606.415 71.6353 616.962 79.5265C621.773 83.1253 625.178 88.3344 626.808 94.3387C628.715 101.364 628.256 114.135 620.205 117.248C623.765 109.431 621.326 99.415 616.651 92.4381ZM706.089 240.387C673.151 254.858 635.475 235.991 620.792 202.527C606.134 169.122 620.13 132.314 648.499 113.282C679.709 100.154 716.437 107.355 734.927 140.218C754.412 174.847 742.506 224.388 706.089 240.387Z" />
<path d="M188.645 286.1C125.427 286.1 74.1758 340.378 74.1758 407.328C74.1758 474.278 125.427 528.557 188.645 528.557C251.862 528.557 303.113 474.278 303.113 407.328C303.113 340.378 251.862 286.1 188.645 286.1ZM188.645 294.182C247.554 294.182 295.482 344.94 295.482 407.328H81.807C81.807 344.94 129.735 294.182 188.645 294.182Z" />
<path d="M340.658 258.621C331.245 258.621 323.588 250.511 323.588 240.542V235.845C321.747 235.516 319.91 235.133 318.091 234.699L316.426 238.923C313.764 245.677 307.578 250.042 300.668 250.042C298.407 250.042 296.197 249.572 294.098 248.643C289.891 246.782 286.618 243.299 284.885 238.832C283.153 234.367 283.165 229.452 284.921 224.997L286.532 220.91C284.86 219.798 283.213 218.633 281.602 217.42L278.461 220.746C275.236 224.161 270.95 226.042 266.39 226.042C261.829 226.042 257.543 224.16 254.32 220.746C251.095 217.333 249.321 212.794 249.321 207.964C249.321 203.134 251.097 198.595 254.32 195.18L257.461 191.853C256.33 190.168 255.24 188.445 254.203 186.695L250.475 188.317C248.4 189.221 246.219 189.678 243.991 189.678C237.04 189.678 230.84 185.278 228.198 178.47C224.619 169.249 228.791 158.665 237.497 154.876L241.161 153.281C240.743 151.331 240.376 149.362 240.062 147.388H235.626C226.216 147.388 218.559 139.278 218.559 129.31C218.559 119.341 226.215 111.233 235.628 111.233H240.063C240.409 109.063 240.817 106.902 241.287 104.763L237.633 103.146C233.425 101.287 230.152 97.8018 228.42 93.3355C226.686 88.8692 226.698 83.955 228.455 79.4989C231.116 72.7459 237.301 68.3817 244.213 68.3817C246.473 68.3817 248.683 68.8513 250.782 69.7803L254.503 71.4251C255.45 69.8479 256.438 68.2911 257.463 66.7661L254.322 63.4394C251.098 60.0258 249.323 55.4868 249.323 50.6568C249.323 45.8268 251.099 41.2878 254.322 37.873C257.545 34.4582 261.831 32.5785 266.392 32.5785C270.953 32.5785 275.239 34.4594 278.463 37.873L281.604 41.1997C283.367 39.8739 285.172 38.6042 287.006 37.3983L285.417 33.2995C283.683 28.8332 283.695 23.919 285.452 19.4629C287.207 15.0068 290.498 11.5422 294.715 9.70592C296.79 8.80245 298.971 8.34433 301.2 8.34433C308.151 8.34433 314.35 12.7443 316.992 19.5535L318.637 23.7901C320.277 23.4085 321.931 23.0691 323.589 22.7718V18.0745C323.589 8.10953 331.246 0 340.658 0C350.07 0 357.728 8.10953 357.728 18.0783V22.7756C359.861 23.1571 361.985 23.6102 364.088 24.1321L365.835 19.6977C368.498 12.9433 374.683 8.57913 381.593 8.57913C383.854 8.57913 386.063 9.04873 388.162 9.97772C396.848 13.8175 400.965 24.4256 397.34 33.6236L395.532 38.2137C396.946 39.172 398.342 40.1699 399.712 41.201L402.854 37.8743C406.077 34.4594 410.363 32.5798 414.924 32.5798C419.485 32.5798 423.771 34.4607 426.995 37.8743C433.65 44.9234 433.65 56.3928 426.995 63.4394L423.854 66.7661C425.056 68.5565 426.209 70.3902 427.305 72.2533L431.786 70.3034C433.861 69.4 436.042 68.9419 438.271 68.9419C445.222 68.9419 451.42 73.3418 454.063 80.151C457.641 89.3707 453.47 99.9546 444.764 103.743L440.234 105.716C440.618 107.543 440.959 109.386 441.253 111.233H445.688C455.101 111.233 462.757 119.341 462.757 129.31C462.757 139.278 455.101 147.388 445.688 147.388H441.253C440.928 149.427 440.547 151.461 440.113 153.476L444.632 155.473C448.839 157.334 452.112 160.818 453.845 165.284C455.577 169.75 455.565 174.664 453.808 179.12C451.147 185.874 444.961 190.238 438.05 190.238C435.79 190.238 433.58 189.768 431.481 188.839L427.011 186.863C426.003 188.553 424.949 190.221 423.854 191.852L426.995 195.179C433.65 202.228 433.65 213.697 426.995 220.744C423.771 224.159 419.485 226.04 414.924 226.04C410.363 226.04 406.077 224.157 402.854 220.744L399.713 217.417C398.191 218.562 396.638 219.666 395.063 220.72L396.846 225.317C398.58 229.784 398.568 234.698 396.812 239.154C395.056 243.61 391.765 247.076 387.548 248.911C385.473 249.814 383.292 250.273 381.063 250.273C374.112 250.273 367.914 245.873 365.271 239.063L363.546 234.621C361.62 235.088 359.677 235.498 357.727 235.846V240.544C357.728 250.511 350.071 258.621 340.658 258.621ZM330.819 236.854V240.542C330.819 246.289 335.233 250.964 340.659 250.964C346.085 250.964 350.5 246.289 350.5 240.542V236.854C343.972 237.515 337.346 237.515 330.819 236.854ZM370.59 232.626L371.959 236.153C373.483 240.079 377.057 242.616 381.065 242.616C382.346 242.616 383.603 242.351 384.802 241.83C387.233 240.772 389.13 238.774 390.142 236.206C391.156 233.636 391.163 230.805 390.164 228.229L388.76 224.613C382.956 227.903 376.871 230.586 370.59 232.626ZM292.844 224.774L291.594 227.945C290.581 230.515 290.574 233.347 291.573 235.922C292.572 238.497 294.458 240.505 296.883 241.577C298.096 242.113 299.369 242.385 300.669 242.385C304.655 242.385 308.221 239.869 309.755 235.975L311.036 232.728C304.747 230.708 298.655 228.046 292.844 224.774ZM330.819 229.161C337.337 229.872 343.981 229.872 350.5 229.161V226.505C350.5 220.759 346.085 216.084 340.659 216.084C335.233 216.084 330.819 220.759 330.819 226.505V229.161ZM340.658 208.427C350.071 208.427 357.728 216.537 357.728 226.505V228.072C358.742 227.878 359.753 227.665 360.759 227.434L360.233 226.08C358.499 221.614 358.512 216.7 360.268 212.244C362.024 207.788 365.315 204.323 369.532 202.487C371.607 201.583 373.788 201.125 376.017 201.125C382.968 201.125 389.166 205.525 391.809 212.334L392.27 213.523C393.028 213.001 393.78 212.467 394.523 211.921L393.483 210.82C390.259 207.406 388.484 202.867 388.484 198.037C388.484 193.207 390.26 188.668 393.483 185.253C396.707 181.839 400.993 179.959 405.553 179.959C410.114 179.959 414.4 181.84 417.624 185.253L418.664 186.355C419.2 185.533 419.726 184.705 420.239 183.868L419.252 183.431C415.045 181.571 411.772 178.087 410.039 173.621C408.307 169.154 408.317 164.239 410.074 159.784C412.736 153.03 418.921 148.665 425.832 148.665C428.093 148.665 430.303 149.135 432.402 150.064L433.337 150.477C433.544 149.45 433.737 148.419 433.914 147.385H432.434C423.021 147.385 415.365 139.276 415.365 129.307C415.365 119.338 423.021 111.23 432.434 111.23H433.915C433.769 110.374 433.611 109.52 433.443 108.669L432.508 109.076C430.433 109.98 428.252 110.438 426.023 110.438C419.07 110.438 412.872 106.038 410.231 99.2285C408.497 94.7622 408.509 89.848 410.266 85.3919C412.021 80.9358 415.312 77.4712 419.529 75.6349L420.519 75.2036C419.917 74.2121 419.299 73.2295 418.665 72.2584L417.626 73.3597C414.401 76.7745 410.115 78.6554 405.554 78.6554C400.994 78.6554 396.708 76.7732 393.485 73.3597C390.26 69.9461 388.485 65.4071 388.485 60.5771C388.485 55.7471 390.261 51.2081 393.485 47.7933L394.525 46.692C393.922 46.2505 393.315 45.8166 392.703 45.3891L392.236 46.5721C389.575 53.3264 383.389 57.6906 376.479 57.6906C374.219 57.6906 372.008 57.2197 369.909 56.2907C365.701 54.4315 362.429 50.9465 360.696 46.4802C358.963 42.0139 358.975 37.0997 360.731 32.6449L361.262 31.2948C360.089 31.0204 358.912 30.769 357.728 30.5406V32.1076C357.728 42.0764 350.071 50.1847 340.658 50.1847C331.245 50.1847 323.588 42.0764 323.588 32.1076V30.5406C322.866 30.6784 322.147 30.8277 321.429 30.9834L322.029 32.5326C325.607 41.7523 321.436 52.3361 312.73 56.1248C310.655 57.0283 308.474 57.4864 306.245 57.4864C299.294 57.4864 293.096 53.0865 290.453 46.2773L289.794 44.5788C288.782 45.2615 287.781 45.9659 286.793 46.6895L287.833 47.7907C294.487 54.8398 294.487 66.3093 287.833 73.3559C284.608 76.7707 280.322 78.6516 275.762 78.6516C271.201 78.6516 266.915 76.7694 263.692 73.3559L262.651 72.2546C262.184 72.9679 261.728 73.6876 261.279 74.4124L263.012 75.1794C267.22 77.0386 270.491 80.5236 272.225 84.9899C273.959 89.4562 273.947 94.3717 272.19 98.8265C269.528 105.58 263.342 109.945 256.433 109.945C256.432 109.945 256.433 109.945 256.432 109.945C254.172 109.944 251.962 109.474 249.863 108.545L248.06 107.749C247.823 108.901 247.602 110.062 247.403 111.225H248.883C258.296 111.225 265.953 119.333 265.953 129.302C265.953 139.271 258.295 147.388 248.883 147.388H247.403C247.572 148.371 247.754 149.349 247.951 150.327L249.757 149.541C251.832 148.637 254.013 148.179 256.242 148.179C263.194 148.179 269.392 152.579 272.035 159.388C275.613 168.611 271.441 179.194 262.735 182.981L260.998 183.737C261.536 184.619 262.088 185.493 262.652 186.357L263.693 185.256C266.916 181.841 271.202 179.961 275.763 179.961C280.323 179.961 284.609 181.842 287.834 185.256C294.489 192.305 294.489 203.774 287.834 210.821L286.794 211.924C287.64 212.542 288.495 213.149 289.359 213.738L290.028 212.044C292.691 205.289 298.876 200.925 305.786 200.925C308.047 200.925 310.256 201.395 312.355 202.324C316.563 204.184 319.836 207.668 321.568 212.134C323.301 216.6 323.29 221.516 321.533 225.971L320.922 227.52C321.808 227.718 322.699 227.903 323.589 228.075V226.505C323.589 216.537 331.246 208.427 340.658 208.427ZM295.641 217.675C301.434 220.993 307.531 223.655 313.836 225.621L314.862 223.02C315.875 220.45 315.882 217.619 314.883 215.044C313.883 212.468 311.996 210.461 309.572 209.388C308.359 208.852 307.086 208.58 305.786 208.58C301.801 208.58 298.235 211.097 296.7 214.99L295.641 217.675ZM376.017 208.782C374.736 208.782 373.479 209.047 372.28 209.568C369.849 210.627 367.952 212.625 366.94 215.193C365.927 217.762 365.919 220.593 366.918 223.168L367.828 225.51C374.125 223.518 380.212 220.831 385.992 217.491L385.121 215.245C383.599 211.32 380.024 208.782 376.017 208.782ZM405.504 212.722L407.968 215.332C409.827 217.301 412.298 218.386 414.925 218.386C417.554 218.386 420.025 217.301 421.884 215.332C425.72 211.269 425.72 204.658 421.884 200.593L419.42 197.984C415.239 203.357 410.578 208.294 405.504 212.722ZM261.896 197.984L259.432 200.593C257.573 202.562 256.55 205.179 256.55 207.963C256.55 210.746 257.573 213.362 259.432 215.331C261.292 217.3 263.763 218.384 266.39 218.384C269.019 218.384 271.489 217.3 273.348 215.331L275.812 212.721C270.739 208.294 266.079 203.357 261.896 197.984ZM267.034 192.544C271.18 197.952 275.845 202.89 280.951 207.282L282.722 205.407C286.559 201.344 286.559 194.732 282.722 190.668C280.863 188.7 278.392 187.615 275.764 187.615C273.136 187.615 270.665 188.7 268.807 190.668L267.034 192.544ZM405.553 187.615C402.924 187.615 400.454 188.7 398.596 190.668C396.738 192.637 395.714 195.254 395.714 198.037C395.714 200.82 396.737 203.436 398.596 205.405L400.367 207.28C405.473 202.89 410.137 197.949 414.283 192.542L412.513 190.667C410.653 188.7 408.182 187.615 405.553 187.615ZM430.679 180.187L434.266 181.773C435.479 182.309 436.751 182.581 438.052 182.581C442.037 182.581 445.604 180.065 447.138 176.171C449.227 170.868 446.856 164.753 441.848 162.539L438.233 160.941C436.312 167.596 433.782 174.042 430.679 180.187ZM243.027 160.747L240.247 161.957C237.816 163.016 235.919 165.015 234.907 167.582C233.894 170.151 233.887 172.982 234.885 175.558C236.41 179.484 239.983 182.021 243.994 182.021C245.274 182.021 246.53 181.757 247.729 181.236L250.548 180.009C247.455 173.854 244.937 167.405 243.027 160.747ZM425.831 156.324C421.845 156.324 418.279 158.841 416.745 162.734C415.731 165.304 415.724 168.136 416.723 170.711C417.723 173.286 419.61 175.293 422.034 176.367L423.973 177.224C427.12 171.098 429.652 164.648 431.526 157.977L429.616 157.132C428.404 156.596 427.13 156.324 425.831 156.324ZM249.747 157.823C251.61 164.495 254.132 170.95 257.269 177.083L259.987 175.9C265.005 173.715 267.41 167.614 265.349 162.299C263.824 158.373 260.25 155.836 256.24 155.836C254.96 155.836 253.703 156.101 252.504 156.622L249.747 157.823ZM442.207 139.732H445.69C451.115 139.732 455.529 135.056 455.529 129.31C455.529 123.563 451.115 118.889 445.69 118.889H442.207C442.519 122.345 442.677 125.834 442.677 129.31C442.677 132.786 442.519 136.275 442.207 139.732ZM432.434 118.889C427.008 118.889 422.595 123.563 422.595 129.31C422.595 135.056 427.008 139.732 432.434 139.732H434.943C435.278 136.28 435.448 132.788 435.448 129.31C435.448 125.832 435.278 122.34 434.943 118.889H432.434ZM246.374 139.732H248.882C254.308 139.732 258.723 135.056 258.723 129.31C258.723 123.563 254.308 118.889 248.882 118.889H246.374C246.039 122.34 245.87 125.832 245.87 129.31C245.871 132.788 246.039 136.28 246.374 139.732ZM235.629 118.889C230.203 118.889 225.788 123.563 225.788 129.31C225.788 135.056 230.202 139.732 235.628 139.732H239.11C238.798 136.275 238.64 132.786 238.64 129.31C238.64 125.834 238.798 122.345 239.11 118.889H235.629ZM424.219 81.875L422.277 82.7198C419.845 83.7789 417.948 85.7773 416.936 88.3448C415.923 90.9135 415.916 93.7452 416.915 96.3203C418.439 100.247 422.013 102.784 426.021 102.784C427.302 102.784 428.559 102.518 429.758 101.998L431.673 101.164C429.833 94.4827 427.335 88.0194 424.219 81.875ZM249.895 100.271L252.646 101.487C253.86 102.023 255.132 102.295 256.432 102.296C256.433 102.296 256.433 102.296 256.433 102.296C260.418 102.296 263.985 99.7798 265.518 95.8864C266.532 93.3164 266.539 90.4848 265.54 87.9096C264.54 85.3345 262.654 83.3259 260.23 82.254L257.519 81.0558C254.349 87.1695 251.794 93.6086 249.895 100.271ZM430.939 78.9502C434.01 85.115 436.507 91.5745 438.394 98.2383L442.017 96.6623C447.036 94.4776 449.441 88.3767 447.378 83.0618C445.853 79.1353 442.28 76.5984 438.271 76.5984C436.99 76.5984 435.733 76.8638 434.534 77.3845L430.939 78.9502ZM244.213 76.0395C240.227 76.0395 236.66 78.5559 235.126 82.4492C234.113 85.018 234.106 87.8496 235.105 90.4248C236.105 92.9999 237.992 95.0085 240.416 96.0804L243.191 97.3067C245.135 90.6609 247.687 84.2268 250.811 78.0901L247.998 76.8459C246.784 76.3113 245.512 76.0395 244.213 76.0395ZM400.365 51.3382L398.595 53.2128C396.737 55.1818 395.713 57.7991 395.713 60.5822C395.713 63.3654 396.736 65.9813 398.595 67.9503C400.454 69.9193 402.925 71.004 405.552 71.004C408.181 71.004 410.651 69.9193 412.511 67.9503L414.281 66.0745C410.137 60.669 405.473 55.7293 400.365 51.3382ZM267.035 66.0758L268.805 67.9516C270.665 69.9206 273.136 71.0053 275.763 71.0053C278.392 71.0053 280.862 69.9206 282.721 67.9516C286.558 63.8886 286.558 57.2772 282.721 53.2128L280.95 51.3382C275.845 55.7293 271.18 60.669 267.035 66.0758ZM405.504 45.8983C410.578 50.3276 415.239 55.2622 419.42 60.6358L421.885 58.0262C425.721 53.9632 425.721 47.3518 421.885 43.2874C420.026 41.3197 417.554 40.235 414.926 40.235C412.298 40.235 409.828 41.3197 407.969 43.2874L405.504 45.8983ZM266.391 40.235C263.762 40.235 261.292 41.3197 259.434 43.2874C257.574 45.2564 256.551 47.8737 256.551 50.6568C256.551 53.44 257.574 56.0559 259.434 58.0249L261.898 60.6345C266.08 55.2609 270.741 50.325 275.815 45.897L273.35 43.2861C271.49 41.3197 269.019 40.235 266.391 40.235ZM368.322 33.2663L367.402 35.6003C366.389 38.169 366.382 41.0007 367.381 43.5758C368.38 46.151 370.267 48.1595 372.691 49.2314C373.905 49.7674 375.178 50.0405 376.478 50.0405C380.463 50.0405 384.03 47.524 385.563 43.6307L386.444 41.3924C380.682 38.0185 374.608 35.2953 368.322 33.2663ZM296.097 40.6868L297.139 43.3742C298.664 47.3007 302.238 49.8376 306.246 49.8376C307.527 49.8376 308.784 49.5721 309.983 49.0515C315.001 46.8656 317.406 40.7659 315.344 35.451L314.333 32.8465C308.018 34.7759 301.906 37.4047 296.097 40.6868ZM330.819 29.4597V32.1153C330.819 37.8615 335.233 42.5358 340.659 42.5358C346.085 42.5358 350.5 37.8615 350.5 32.1153V29.4597C343.98 28.749 337.337 28.749 330.819 29.4597ZM371.121 26.1687C377.392 28.2436 383.462 30.963 389.247 34.2872L390.671 30.6759C392.761 25.3724 390.388 19.2574 385.38 17.0434C384.167 16.5075 382.895 16.2357 381.594 16.2357C377.61 16.2357 374.043 18.7521 372.508 22.6454L371.121 26.1687ZM301.198 16.0034C299.917 16.0034 298.66 16.2688 297.461 16.7895C295.03 17.8486 293.133 19.847 292.121 22.4145C291.108 24.9832 291.1 27.8149 292.099 30.39L293.333 33.57C299.161 30.3339 305.267 27.7064 311.566 25.7259L310.302 22.4668C308.78 18.5403 305.206 16.0034 301.198 16.0034ZM340.658 21.2685C343.94 21.2685 347.235 21.4357 350.499 21.7662V18.0783C350.499 12.3321 346.084 7.65652 340.658 7.65652C335.232 7.65652 330.817 12.3321 330.817 18.0783V21.7662C334.082 21.4357 337.377 21.2685 340.658 21.2685Z" />
</svg>
