<svg width="546" height="800" viewBox="0 0 546 800"  xmlns="http://www.w3.org/2000/svg">
<path d="M465.661 334.367C442.631 311.28 415.394 292.283 385.233 278.634L512.875 113.102L391.181 0H154.425L32.7469 113.044L160.373 278.634C130.153 292.283 102.945 311.278 79.8875 334.367C30.6125 383.642 0 451.941 0 527.211C0 602.494 30.6141 670.764 79.8875 720.069C129.233 769.416 197.519 800 272.803 800C348.087 800 416.373 769.416 465.661 720.069C514.994 670.764 545.608 602.494 545.608 527.211C545.606 451.941 514.994 383.641 465.661 334.367ZM342.681 263.481L318.483 294.855L330.917 260.661L355.744 192.669L451.252 122.659L342.681 263.481ZM328.038 197.197L306.456 256.495L291.331 298.039L285.983 312.636H257.912L252.637 298.17L237.5 256.684L215.844 197.195L328.038 197.197ZM214.016 172.692L228.366 115.688H315.545L329.895 172.692H214.016ZM392.656 59.9547L437.897 101.995L352.997 164.289L338.822 107.65L392.656 59.9547ZM171.289 42.9031H374.273L374.55 43.225L320.425 91.1547H225.178L171.053 43.1516L171.289 42.9031ZM152.95 59.9547L205.366 106.366V106.423L190.841 164.217L106.92 102.727L152.95 59.9547ZM96.5438 125.552L188.092 192.667L212.962 261.025L223.703 290.5L202.85 263.481L96.5438 125.552ZM435.369 689.775C393.694 731.392 336.369 757.081 272.803 757.081C209.239 757.081 151.912 731.392 110.237 689.775C68.5906 648.1 42.9313 590.775 42.9313 527.209C42.9313 463.63 68.5922 406.319 110.237 364.642C132.112 342.797 158.298 325.334 187.406 313.673L210.231 343.278H335.375L358.212 313.673C387.308 325.334 413.494 342.797 435.369 364.642C477.016 406.319 502.689 463.63 502.689 527.209C502.689 590.775 477.016 648.1 435.369 689.775Z" />
<path d="M272.802 365.463C228.189 365.463 187.639 383.597 158.43 412.836C129.189 442.063 111.055 482.583 111.055 527.211C111.055 571.794 129.189 612.358 158.43 641.571C187.639 670.811 228.191 688.96 272.802 688.96C317.414 688.96 357.964 670.811 387.175 641.571C416.4 612.36 434.55 571.796 434.55 527.211C434.55 482.585 416.4 442.063 387.175 412.836C357.964 383.597 317.414 365.463 272.802 365.463ZM361.148 615.574C338.5 638.208 307.375 652.163 272.8 652.163C238.242 652.163 207.117 638.208 184.452 615.574C161.787 592.88 147.847 561.771 147.847 527.211C147.847 492.624 161.787 461.527 184.452 438.847C207.117 416.197 238.242 402.258 272.8 402.243C307.375 402.258 338.5 416.197 361.148 438.847C383.798 461.525 397.753 492.622 397.753 527.211C397.755 561.771 383.798 592.894 361.148 615.574Z" />
</svg>
